<svg width="30" height="30" viewBox="0 0 30 30" fill="none" xmlns="http://www.w3.org/2000/svg">
<g id="1">
<path id="Vector" d="M14.562 10.9214L14.6071 11.6629L13.8542 11.572C11.1127 11.2242 8.71752 10.0437 6.68424 8.06129L5.69 7.07761L5.434 7.80401C4.8916 9.42321 5.23816 11.1333 6.36776 12.2834C6.97032 12.9189 6.83496 13.0098 5.79528 12.6315C5.43368 12.5106 5.11752 12.4197 5.08744 12.4651C4.98184 12.5707 5.34344 13.948 5.62984 14.493C6.0212 15.2494 6.8196 15.9912 7.6932 16.4299L8.43144 16.7781L7.55784 16.7931C6.71432 16.7931 6.68424 16.8082 6.77448 17.1259C7.07592 18.1099 8.26568 19.1541 9.59144 19.6078L10.5252 19.9259L9.71176 20.4101C8.50664 21.1061 7.09096 21.4997 5.67496 21.5301C4.9972 21.5451 4.43976 21.6056 4.43976 21.651C4.43976 21.8024 6.27752 22.6498 7.34696 22.9826C10.5553 23.9662 14.3662 23.5426 17.2282 21.8626C19.2615 20.6674 21.2951 18.2914 22.2439 15.9912C22.7559 14.7653 23.2682 12.5256 23.2682 11.451C23.2682 10.755 23.3137 10.6642 24.1572 9.83185C24.6542 9.34769 25.121 8.81777 25.2116 8.66641C25.362 8.37905 25.347 8.37905 24.579 8.63633C23.2983 9.09041 23.1178 9.02993 23.7502 8.34865C24.2174 7.86449 24.7745 6.98673 24.7745 6.72945C24.7745 6.68401 24.5486 6.75985 24.2926 6.89585C24.0215 7.04721 23.419 7.27441 22.9671 7.41041L22.1537 7.66769L21.4158 7.16849C21.009 6.89585 20.4366 6.59345 20.1351 6.50257C19.3671 6.29073 18.1921 6.32081 17.4993 6.56305C15.6164 7.24401 14.4263 8.99953 14.562 10.9214Z" fill="#F4F4F4"/>
</g>
</svg>
