<svg width="30" height="30" viewBox="0 0 30 30" fill="none" xmlns="http://www.w3.org/2000/svg">
<g id="2">
<path id="Vector" fill-rule="evenodd" clip-rule="evenodd" d="M10.087 6.5926C10.0598 5.37116 9.18233 4.44092 7.75705 4.44092C6.33177 4.44092 5.39993 5.37116 5.39993 6.5926C5.39993 7.78876 6.30425 8.74588 7.70297 8.74588H7.72953C9.18233 8.74588 10.087 7.78876 10.087 6.5926ZM9.81241 10.4457H5.64601V22.903H9.81241V10.4457ZM20.0403 10.1536C22.7817 10.1536 24.8371 11.9344 24.8371 15.7606V22.9033H20.6703V16.2387C20.6703 14.5648 20.0678 13.4227 18.5596 13.4227C17.4086 13.4227 16.7228 14.1926 16.422 14.9363C16.3116 15.2028 16.2844 15.5744 16.2844 15.9465V22.9036H12.118C12.118 22.9036 12.1727 11.6153 12.118 10.4464H16.2844V12.2108C16.8374 11.3628 17.8278 10.1536 20.0399 10.1536H20.0403Z" fill="#F4F4F4"/>
</g>
</svg>
