<svg width="125" height="31" viewBox="0 0 125 31" fill="none" xmlns="http://www.w3.org/2000/svg">
<g id="Artboard 1 copy 12 1">
<g id="Group 1972156592">
<g id="Group">
<g id="Group_2">
<path id="Vector" d="M19.5773 28.3026C18.4432 28.6464 17.4057 29.1381 16.4436 29.877C16.4345 29.7533 16.4225 29.6749 16.4225 29.5935C16.4225 24.7738 16.4225 19.9512 16.4225 15.1316C16.4225 14.266 16.4345 13.3973 16.4225 12.5317C16.4104 11.7053 16.709 11.0267 17.2851 10.4386C19.1972 8.48722 21.5407 7.2989 24.1315 6.5479C26.2427 5.93565 28.4052 5.73659 30.5949 5.76072C30.9809 5.76373 31.367 5.76072 31.7711 5.76072V22.2464C31.0774 22.2886 30.3898 22.3248 29.7051 22.3791C26.2367 22.6445 22.9009 23.3925 19.8457 25.1328C19.6376 25.2504 19.5742 25.3831 19.5773 25.6123C19.5893 26.5081 19.5833 27.4008 19.5833 28.3056L19.5773 28.3026ZM19.5773 22.1077C20.9767 21.2752 22.3942 20.6328 23.9113 20.2136C25.4284 19.7944 26.9726 19.5018 28.5439 19.3148V8.91851C27.8171 9.02106 27.1113 9.09948 26.4146 9.22615C24.2431 9.61824 22.2284 10.3753 20.464 11.7536C19.8336 12.2482 19.5652 12.8213 19.5712 13.6024C19.5893 15.9399 19.5773 18.2773 19.5773 20.6147C19.5773 21.0913 19.5773 21.5678 19.5773 22.1107V22.1077Z" fill="white"/>
<path id="Vector_2" d="M11.5787 19.1129H14.9235V29.8862C14.5676 29.5695 14.2268 29.2588 13.8829 28.9542C11.8049 27.1295 9.32872 26.1222 6.68063 25.4707C4.59353 24.958 2.47627 24.6865 0.322818 24.7046C0.0604221 24.7046 -0.00291473 24.6292 0.000101313 24.3759C0.0061334 18.2895 0.00613354 12.2001 0.00613354 6.11374C0.00613354 6.01722 0.0151819 5.92373 0.018198 5.84229C0.0543905 5.81817 0.0694711 5.80007 0.0845513 5.79706C3.67666 5.63419 7.17527 6.01119 10.4658 7.58858C11.6993 8.17973 12.8213 8.9458 13.8739 9.82046C15.0411 10.7916 15.4754 12.0523 15.3759 13.5332C15.3699 13.6297 15.3608 13.7262 15.3487 13.868C11.9165 10.6318 7.75736 9.26852 3.14282 8.95183C3.14282 9.06644 3.14282 9.14185 3.14282 9.21725C3.14282 13.2889 3.14282 17.3606 3.14282 21.4292C3.14282 21.6494 3.20012 21.7127 3.42934 21.7399C6.10457 22.0777 8.71646 22.6507 11.1353 23.9024C11.2711 23.9717 11.4068 24.0411 11.5817 24.1286V19.1038L11.5787 19.1129Z" fill="white"/>
<path id="Vector_3" d="M16.9744 8.62914C17.1583 8.31547 17.3242 7.98672 17.5323 7.69115C18.404 6.44552 19.535 5.46832 20.7927 4.62986C22.8949 3.22439 25.178 2.25021 27.6632 1.77066C27.7658 1.74954 27.8713 1.74653 28.0312 1.73145C28.0312 2.15068 28.0372 2.54578 28.0312 2.94088C28.0251 3.32995 27.998 3.71902 27.998 4.10809C27.998 4.28302 27.9407 4.3916 27.7718 4.42477C27.3345 4.50621 26.8971 4.59367 26.4538 4.65098C23.2115 5.07624 20.2709 6.2344 17.6681 8.22499C17.463 8.38182 17.2458 8.52357 17.0347 8.67438L16.9744 8.62914Z" fill="white"/>
<path id="Vector_4" d="M14.6702 8.55043C11.4973 6.01696 7.81771 4.86785 3.84558 4.46671V1.70703C4.50308 1.86085 5.13946 1.97546 5.75474 2.16246C8.53854 3.01298 11.0539 4.3521 13.1078 6.44524C13.6477 6.99416 14.0669 7.66372 14.5344 8.28201C14.5948 8.36042 14.6249 8.46297 14.6702 8.55345V8.55043Z" fill="white"/>
<path id="Vector_5" d="M14.8119 6.55389C14.5314 6.22212 14.272 5.89639 13.9945 5.58875C12.758 4.22852 11.2982 3.15481 9.67859 2.29524C9.42825 2.16253 9.33174 1.99664 9.34079 1.72218C9.35587 1.1612 9.3438 0.600219 9.3438 0.0332031C11.2379 0.567043 14.7878 4.79855 14.8119 6.5569V6.55389Z" fill="white"/>
<path id="Vector_6" d="M22.3791 0C22.3791 0.67861 22.3912 1.31197 22.3671 1.94233C22.361 2.05694 22.2283 2.21076 22.1137 2.27409C20.4549 3.16986 18.9559 4.27072 17.6982 5.68222C17.4539 5.95668 17.2247 6.24321 16.9352 6.5056C16.9925 6.30654 17.0377 6.10447 17.1041 5.90843C17.5263 4.70503 18.2351 3.67354 19.0705 2.7265C19.9573 1.71914 20.9616 0.847505 22.1107 0.147783C22.1831 0.102543 22.2615 0.0663529 22.3822 0H22.3791Z" fill="white"/>
</g>
<g id="Group_3">
<path id="Vector_7" d="M17.3664 0.156869C16.7693 0.0271791 16.0876 0.331801 15.9549 0.959138C16.2716 0.567052 16.7482 0.389106 17.2277 0.573084C17.8852 0.823416 17.8973 1.63775 17.5384 2.14444C17.2548 2.54558 16.7693 2.82607 16.3923 3.14878C16.0062 3.48356 15.7498 3.84247 15.7951 4.3552H15.8192C15.9338 3.89676 16.1721 3.67056 16.5883 3.4142C17.0679 3.11561 17.6077 2.8502 17.9425 2.46716C18.594 1.72521 18.4432 0.38609 17.3634 0.153855L17.3664 0.156869Z" fill="white"/>
<path id="Vector_8" d="M14.3776 2.24102C14.079 1.86704 14.0096 1.19747 14.4801 0.932063C15.1195 0.594266 15.6594 1.1281 15.8675 1.68909C16.0424 1.24875 16.4375 0.751101 16.896 0.772213C16.5401 0.663636 16.1178 0.829519 15.9127 1.23065C15.7378 0.790311 14.9567 0.211227 14.2449 0.56712C13.512 0.929045 13.5391 1.94545 14.0338 2.5004C14.5435 3.06139 15.5508 3.18203 15.7378 3.90588C15.8404 3.11266 14.7847 2.76582 14.3776 2.24102Z" fill="white"/>
</g>
</g>
<g id="Group_4">
<path id="Vector_9" d="M46.2632 14.5731V6.3725H43.3135V4.48145H51.3603V6.3725H48.4257V14.5731H46.2632Z" fill="white"/>
<path id="Vector_10" d="M57.8056 14.5731V10.1245C57.8056 9.11107 57.2748 8.79438 56.4454 8.79438C55.7034 8.79438 55.1153 9.21663 54.7805 9.65697V14.5731H52.8593V4.48145H54.7805V8.21832C55.248 7.65734 56.1559 7.08429 57.3532 7.08429C58.9578 7.08429 59.7299 7.96196 59.7299 9.38251V14.5731H57.8086H57.8056Z" fill="white"/>
<path id="Vector_11" d="M61.3314 10.9118C61.3314 8.79457 62.8907 7.08447 65.1135 7.08447C67.3363 7.08447 68.775 8.71917 68.775 11.1079V11.5301H63.3431C63.4637 12.453 64.2057 13.2251 65.4452 13.2251C66.0666 13.2251 66.9291 12.9537 67.3966 12.4983L68.2441 13.7379C67.5173 14.4044 66.3682 14.7513 65.2341 14.7513C63.0113 14.7513 61.3314 13.2523 61.3314 10.9088V10.9118ZM65.1135 8.61361C63.9191 8.61361 63.4034 9.50636 63.3129 10.2332H66.9141C66.8688 9.53652 66.3832 8.61361 65.1135 8.61361Z" fill="white"/>
<path id="Vector_12" d="M43.4522 22.9429C43.4522 19.7489 45.8711 17.7222 48.8238 17.7222C50.926 17.7222 52.241 18.7808 52.998 19.9752L51.2125 20.9433C50.7601 20.2315 49.8975 19.6283 48.8238 19.6283C46.993 19.6283 45.663 21.0338 45.663 22.9399C45.663 24.8461 46.993 26.2515 48.8238 26.2515C49.7165 26.2515 50.564 25.8595 50.9712 25.4794V24.27H48.308V22.394H53.1186V26.2666C52.0902 27.4157 50.6515 28.1728 48.8238 28.1728C45.8741 28.1728 43.4522 26.1158 43.4522 22.9399V22.9429Z" fill="white"/>
<path id="Vector_13" d="M54.7503 18.7356C54.7503 18.0992 55.2811 17.6016 55.8994 17.6016C56.5177 17.6016 57.0485 18.1022 57.0485 18.7356C57.0485 19.369 56.5328 19.8847 55.8994 19.8847C55.266 19.8847 54.7503 19.372 54.7503 18.7356ZM54.9463 27.9798V20.6719H56.8676V27.9798H54.9463Z" fill="white"/>
<path id="Vector_14" d="M59.3196 26.1641V22.3518H58.1102V20.6719H59.3196V18.6753H61.2559V20.6719H62.7368V22.3518H61.2559V25.6484C61.2559 26.1008 61.4972 26.4507 61.9224 26.4507C62.212 26.4507 62.4834 26.3451 62.589 26.2395L62.9962 27.6933C62.7096 27.9496 62.1939 28.1607 61.3916 28.1607C60.0465 28.1607 59.3196 27.464 59.3196 26.1641Z" fill="white"/>
<path id="Vector_15" d="M68.606 27.9799V27.2228C68.1053 27.814 67.2458 28.1608 66.2927 28.1608C65.1285 28.1608 63.7502 27.3736 63.7502 25.742C63.7502 24.1103 65.1255 23.3834 66.2927 23.3834C67.2609 23.3834 68.1234 23.7001 68.606 24.2762V23.2929C68.606 22.551 67.9696 22.0684 67.0015 22.0684C66.2143 22.0684 65.4874 22.3549 64.8691 22.931L64.1423 21.6462C65.035 20.859 66.1841 20.4971 67.3332 20.4971C68.9981 20.4971 70.5272 21.1636 70.5272 23.2658V27.9859H68.606V27.9799ZM68.606 26.2245V25.3167C68.2893 24.8945 67.6831 24.6803 67.0618 24.6803C66.3048 24.6803 65.6865 25.0724 65.6865 25.7842C65.6865 26.496 66.3078 26.8579 67.0618 26.8579C67.6831 26.8579 68.2863 26.6468 68.606 26.2215V26.2245Z" fill="white"/>
<path id="Vector_16" d="M76.683 27.9799V17.8882H81.4031C83.5958 17.8882 84.7931 19.3721 84.7931 21.1425C84.7931 22.9129 83.5837 24.3938 81.4031 24.3938H78.8304V27.9799H76.683ZM82.5974 21.1425C82.5974 20.295 81.9611 19.7823 81.1136 19.7823H78.8304V22.5057H81.1136C81.9611 22.5057 82.5974 21.9779 82.5974 21.1455V21.1425Z" fill="white"/>
<path id="Vector_17" d="M86.2439 27.9796V20.6717H88.1651V21.67C88.6778 21.0185 89.5856 20.4907 90.4935 20.4907V22.3667C90.3577 22.3365 90.1768 22.3215 89.9626 22.3215C89.3263 22.3215 88.4787 22.6834 88.1621 23.1539V27.9796H86.2408H86.2439Z" fill="white"/>
<path id="Vector_18" d="M91.3862 24.3181C91.3862 22.2461 92.8399 20.4907 95.2437 20.4907C97.6475 20.4907 99.1163 22.2461 99.1163 24.3181C99.1163 26.3901 97.6656 28.1605 95.2437 28.1605C92.8218 28.1605 91.3862 26.4052 91.3862 24.3181ZM97.1197 24.3181C97.1197 23.184 96.438 22.2008 95.2437 22.2008C94.0493 22.2008 93.3828 23.184 93.3828 24.3181C93.3828 25.4521 94.0493 26.4504 95.2437 26.4504C96.438 26.4504 97.1197 25.4672 97.1197 24.3181Z" fill="white"/>
<path id="Vector_19" d="M98.1934 30.4317L98.7242 28.9931C99.0108 29.2344 99.2702 29.3701 99.7075 29.3701C100.299 29.3701 100.706 28.9931 100.706 28.1757V20.6718H102.627V28.1757C102.627 29.8406 101.779 30.9445 100.024 30.9445C99.1013 30.9445 98.7242 30.7937 98.1934 30.4317ZM100.507 18.7385C100.507 18.1021 101.038 17.6045 101.656 17.6045C102.274 17.6045 102.805 18.1052 102.805 18.7385C102.805 19.3719 102.289 19.8876 101.656 19.8876C101.022 19.8876 100.507 19.3749 100.507 18.7385Z" fill="white"/>
<path id="Vector_20" d="M104.229 24.3181C104.229 22.2008 105.788 20.4907 108.011 20.4907C110.233 20.4907 111.672 22.1254 111.672 24.5141V24.9364H106.24C106.361 25.8593 107.103 26.6314 108.342 26.6314C108.964 26.6314 109.826 26.3599 110.294 25.9045L111.141 27.1441C110.414 27.8107 109.265 28.1575 108.131 28.1575C105.908 28.1575 104.229 26.6585 104.229 24.3151V24.3181ZM108.011 22.0199C106.816 22.0199 106.301 22.9126 106.21 23.6395H109.811C109.766 22.9428 109.28 22.0199 108.011 22.0199Z" fill="white"/>
<path id="Vector_21" d="M112.761 24.3181C112.761 22.0772 114.38 20.4907 116.633 20.4907C118.129 20.4907 119.037 21.1422 119.523 21.8057L118.268 22.985C117.921 22.4693 117.39 22.1978 116.724 22.1978C115.56 22.1978 114.742 23.0453 114.742 24.3151C114.742 25.5848 115.56 26.4474 116.724 26.4474C117.39 26.4474 117.918 26.1458 118.268 25.6602L119.523 26.8244C119.04 27.506 118.132 28.1545 116.633 28.1545C114.377 28.1545 112.761 26.565 112.761 24.3121V24.3181Z" fill="white"/>
<path id="Vector_22" d="M121.323 26.1641V22.3518H120.114V20.6719H121.323V18.6753H123.26V20.6719H124.741V22.3518H123.26V25.6484C123.26 26.1008 123.501 26.4507 123.926 26.4507C124.216 26.4507 124.487 26.3451 124.593 26.2395L125 27.6933C124.713 27.9496 124.198 28.1607 123.395 28.1607C122.05 28.1607 121.323 27.464 121.323 26.1641Z" fill="white"/>
</g>
</g>
</g>
</svg>
