<svg width="24" height="24" viewBox="0 0 24 24" fill="none" xmlns="http://www.w3.org/2000/svg">
<g id="heart">
<path id="Vector" d="M19.8685 5.43469C19.4139 4.97985 18.8741 4.61904 18.28 4.37287C17.6859 4.1267 17.0491 4 16.406 4C15.7629 4 15.1262 4.1267 14.5321 4.37287C13.9379 4.61904 13.3982 4.97985 12.9435 5.43469L12 6.37819L11.0565 5.43469C10.1382 4.51638 8.89272 4.00048 7.59403 4.00048C6.29534 4.00048 5.04985 4.51638 4.13154 5.43469C3.21323 6.353 2.69733 7.59849 2.69733 8.89718C2.69733 10.1959 3.21323 11.4414 4.13154 12.3597L5.07504 13.3032L12 20.2282L18.925 13.3032L19.8685 12.3597C20.3234 11.905 20.6842 11.3653 20.9303 10.7712C21.1765 10.1771 21.3032 9.54027 21.3032 8.89718C21.3032 8.25409 21.1765 7.61731 20.9303 7.0232C20.6842 6.4291 20.3234 5.88931 19.8685 5.43469Z" fill="#111111"/>
</g>
</svg>
