<svg width="48" height="45" viewBox="0 0 48 45" fill="none" xmlns="http://www.w3.org/2000/svg">
<g id="Icon" clip-path="url(#clip0_1_3207)">
<path id="Vector" d="M29.0647 32.8182C31.1407 31.5954 33.2452 30.6284 35.4918 30.0028C37.7385 29.3771 40.0421 28.9505 42.374 28.6662V13.2239C41.2934 13.3661 40.2411 13.5083 39.2173 13.6789C35.9753 14.2477 32.9892 15.3852 30.3729 17.4328C29.4344 18.1722 29.0362 19.0254 29.0647 20.1629C29.0647 23.6325 29.0647 27.102 29.0647 30.5716V32.7898V32.8182ZM29.0647 42.004C27.3868 42.5159 25.8511 43.2553 24.4007 44.336C24.4007 44.1653 24.3723 44.0231 24.3723 43.9094C24.3723 36.7428 24.3723 29.5762 24.3723 22.4381C24.3723 21.1583 24.3723 19.8786 24.3723 18.5704C24.3723 17.3475 24.7988 16.3237 25.652 15.4705C28.4959 12.5698 31.9654 10.8066 35.8047 9.69744C38.9329 8.7874 42.1465 8.50301 45.3886 8.53145C45.9573 8.53145 46.5261 8.53145 47.1233 8.53145V33.0173C46.0995 33.0742 45.0757 33.1311 44.0519 33.2164C38.9045 33.6145 33.9561 34.7236 29.4059 37.3116C29.0931 37.4822 29.0078 37.6813 29.0078 38.0225C29.0078 39.3592 29.0078 40.6674 29.0078 42.0324" fill="#F4F4F4"/>
<path id="Vector_2" d="M17.2057 28.3821H22.1825V44.3647C21.6422 43.8813 21.1587 43.4263 20.6468 42.9712C17.547 40.2695 13.8784 38.7623 9.95379 37.7954C6.85395 37.0275 3.69724 36.6294 0.512086 36.6578C0.113942 36.6578 0.0286255 36.5441 0.0286255 36.1744C0.0286255 27.1308 0.0286255 18.0872 0.0286255 9.04368C0.0286255 8.90149 0.0286255 8.75929 0.0286255 8.64554C0.0855032 8.6171 0.113942 8.58866 0.113942 8.58866C5.46045 8.36115 10.6363 8.90149 15.5278 11.2335C17.3479 12.1151 19.0258 13.2526 20.5899 14.5608C22.3247 16.0112 22.9788 17.8882 22.8082 20.078C22.8082 20.2202 22.8082 20.3623 22.7797 20.5899C17.6892 15.7837 11.5179 13.7645 4.66416 13.2811V13.6792C4.66416 19.7367 4.66416 25.7657 4.66416 31.8232C4.66416 32.1645 4.74948 32.2498 5.09074 32.2782C9.07218 32.7901 12.9399 33.6433 16.5232 35.4918C16.7222 35.6056 16.9213 35.6909 17.1773 35.8331V28.3821H17.2057Z" fill="#F4F4F4"/>
<path id="Vector_3" d="M25.1968 12.8259C25.4812 12.3709 25.7087 11.8874 26.0215 11.4324C27.3297 9.58385 29.0076 8.13347 30.8561 6.88216C33.9844 4.80612 37.3686 3.35574 41.0657 2.64477C41.2078 2.61633 41.3785 2.61633 41.606 2.58789C41.606 3.21355 41.606 3.78232 41.606 4.37954C41.606 4.94832 41.5491 5.54553 41.5491 6.11431C41.5491 6.37026 41.4638 6.54089 41.2078 6.56933C40.5538 6.68309 39.8997 6.82528 39.2456 6.9106C34.4394 7.53625 30.0598 9.27102 26.1921 12.2287C25.8793 12.4562 25.5665 12.6837 25.2537 12.9112L25.1683 12.8543L25.1968 12.8259Z" fill="#F4F4F4"/>
<path id="Vector_4" d="M21.7843 12.6837C17.0634 8.92975 11.6032 7.22342 5.71631 6.6262V2.53101C6.68323 2.75852 7.65015 2.92915 8.56019 3.21354C12.6838 4.46485 16.4378 6.45557 19.4807 9.5554C20.277 10.3801 20.9027 11.3755 21.5852 12.2855C21.6705 12.3993 21.7274 12.5415 21.7843 12.6837Z" fill="#F4F4F4"/>
<path id="Vector_5" d="M21.9834 9.7261C21.5568 9.24264 21.1871 8.75918 20.7606 8.30415C18.912 6.285 16.7507 4.69242 14.3618 3.41267C13.9921 3.2136 13.8499 2.95765 13.8499 2.5595C13.8499 1.73478 13.8499 0.881612 13.8499 0.0568848C16.6654 0.853173 21.9265 7.13816 21.9834 9.75454" fill="#F4F4F4"/>
<path id="Vector_6" d="M33.2163 0C33.2163 1.0238 33.2163 1.93384 33.2163 2.90076C33.2163 3.0714 33.0173 3.29891 32.8466 3.38422C30.4009 4.72085 28.1542 6.34186 26.2773 8.44634C25.9076 8.84448 25.5663 9.27107 25.1397 9.66921C25.225 9.38482 25.2819 9.07199 25.3957 8.78761C26.0213 6.99596 27.0736 5.46026 28.3249 4.06676C29.633 2.5595 31.1403 1.27975 32.8466 0.227511C32.9604 0.170633 33.0742 0.113755 33.2448 0" fill="#F4F4F4"/>
<path id="Vector_7" d="M25.794 0.227457C24.9124 0.0283848 23.8886 0.483406 23.6896 1.42189C24.173 0.853112 24.884 0.568723 25.595 0.853112C26.5619 1.22282 26.5903 2.44569 26.05 3.1851C25.6234 3.78231 24.9124 4.2089 24.3437 4.66392C23.7749 5.17582 23.4052 5.68772 23.4621 6.45557H23.4905C23.6611 5.77303 24.0024 5.43177 24.628 5.06206C25.339 4.60704 26.1353 4.23734 26.6472 3.66856C27.6141 2.55944 27.3866 0.568723 25.794 0.227457Z" fill="#F4F4F4"/>
<path id="Vector_8" d="M21.3579 3.32726C20.9313 2.75848 20.8175 1.79156 21.5001 1.39342C22.4386 0.881516 23.2633 1.6778 23.5477 2.50253C23.8036 1.84844 24.4008 1.10903 25.0834 1.13747C24.543 0.966833 23.9174 1.22278 23.633 1.82C23.377 1.1659 22.211 0.312739 21.1588 0.824638C20.0781 1.36498 20.1066 2.87224 20.846 3.69696C21.6138 4.52169 23.0927 4.69232 23.377 5.773C23.5192 4.60701 21.9551 4.06667 21.3579 3.29882" fill="#F4F4F4"/>
</g>
<defs>
<clipPath id="clip0_1_3207">
<rect width="48" height="45" fill="white"/>
</clipPath>
</defs>
</svg>
