<svg width="24" height="18" viewBox="0 0 24 18" fill="none" xmlns="http://www.w3.org/2000/svg">
<g id="Modo_de_isolamento" clip-path="url(#clip0_1_3195)">
<path id="Vector" d="M23.4987 3.22459C23.224 2.19259 22.4107 1.37925 21.376 1.10192C19.504 0.600586 12 0.600586 12 0.600586C12 0.600586 4.496 0.600586 2.624 1.10192C1.592 1.37925 0.778666 2.18992 0.501333 3.22459C0 5.09659 0 9.00059 0 9.00059C0 9.00059 0 12.9046 0.501333 14.7766C0.776 15.8086 1.58933 16.6219 2.624 16.8993C4.496 17.4006 12 17.4006 12 17.4006C12 17.4006 19.504 17.4006 21.376 16.8993C22.408 16.6219 23.2213 15.8113 23.4987 14.7766C24 12.9046 24 9.00059 24 9.00059C24 9.00059 24 5.09659 23.4987 3.22459ZM9.6 12.6006V5.40059L15.8347 9.00059L9.6 12.6006Z" fill="#F4F4F4"/>
</g>
<defs>
<clipPath id="clip0_1_3195">
<rect width="24" height="16.8" fill="white" transform="translate(0 0.600586)"/>
</clipPath>
</defs>
</svg>
