<svg width="160" height="161" viewBox="0 0 160 161" fill="none" xmlns="http://www.w3.org/2000/svg">
<g id="object" clip-path="url(#clip0_1_3216)">
<path id="Vector" d="M0.5 160.5V0.5H159.5V160.5H0.5Z" stroke="#2CD3C9"/>
<g id="Group">
<path id="Vector_2" d="M15.5974 10.0649H9.99933V15.6993H15.5974V10.0649Z" fill="#F4F4F4"/>
<path id="Vector_3" d="M21.1954 10.0649H15.5974V15.6993H21.1954V10.0649Z" fill="#F4F4F4"/>
<path id="Vector_4" d="M26.799 10.0649H21.201V15.6993H26.799V10.0649Z" fill="#F4F4F4"/>
<path id="Vector_5" d="M32.3971 10.0649H26.7991V15.6993H32.3971V10.0649Z" fill="#F4F4F4"/>
<path id="Vector_6" d="M37.9951 10.0649H32.3971V15.6993H37.9951V10.0649Z" fill="#F4F4F4"/>
<path id="Vector_7" d="M43.5988 10.0649H38.0007V15.6993H43.5988V10.0649Z" fill="#F4F4F4"/>
<path id="Vector_8" d="M49.1968 10.0649H43.5988V15.6993H49.1968V10.0649Z" fill="#F4F4F4"/>
<path id="Vector_9" d="M60.3985 10.0649H54.8004V15.6993H60.3985V10.0649Z" fill="#F4F4F4"/>
<path id="Vector_10" d="M65.9965 10.0649H60.3985V15.6993H65.9965V10.0649Z" fill="#F4F4F4"/>
<path id="Vector_11" d="M71.6002 10.0649H66.0021V15.6993H71.6002V10.0649Z" fill="#F4F4F4"/>
<path id="Vector_12" d="M77.1982 10.0649H71.6002V15.6993H77.1982V10.0649Z" fill="#F4F4F4"/>
<path id="Vector_13" d="M116.396 10.0649H110.798V15.6993H116.396V10.0649Z" fill="#F4F4F4"/>
<path id="Vector_14" d="M121.999 10.0649H116.401V15.6993H121.999V10.0649Z" fill="#F4F4F4"/>
<path id="Vector_15" d="M127.597 10.0649H121.999V15.6993H127.597V10.0649Z" fill="#F4F4F4"/>
<path id="Vector_16" d="M133.195 10.0649H127.597V15.6993H133.195V10.0649Z" fill="#F4F4F4"/>
<path id="Vector_17" d="M138.799 10.0649H133.201V15.6993H138.799V10.0649Z" fill="#F4F4F4"/>
<path id="Vector_18" d="M144.397 10.0649H138.799V15.6993H144.397V10.0649Z" fill="#F4F4F4"/>
<path id="Vector_19" d="M149.995 10.0649H144.397V15.6993H149.995V10.0649Z" fill="#F4F4F4"/>
<path id="Vector_20" d="M15.5974 15.6992H9.99933V21.3336H15.5974V15.6992Z" fill="#F4F4F4"/>
<path id="Vector_21" d="M49.1968 15.6992H43.5988V21.3336H49.1968V15.6992Z" fill="#F4F4F4"/>
<path id="Vector_22" d="M77.1982 15.6992H71.6002V21.3336H77.1982V15.6992Z" fill="#F4F4F4"/>
<path id="Vector_23" d="M82.7962 15.6992H77.1982V21.3336H82.7962V15.6992Z" fill="#F4F4F4"/>
<path id="Vector_24" d="M88.3999 15.6992H82.8018V21.3336H88.3999V15.6992Z" fill="#F4F4F4"/>
<path id="Vector_25" d="M93.9979 15.6992H88.3999V21.3336H93.9979V15.6992Z" fill="#F4F4F4"/>
<path id="Vector_26" d="M105.2 15.6992H99.6016V21.3336H105.2V15.6992Z" fill="#F4F4F4"/>
<path id="Vector_27" d="M116.396 15.6992H110.798V21.3336H116.396V15.6992Z" fill="#F4F4F4"/>
<path id="Vector_28" d="M149.995 15.6992H144.397V21.3336H149.995V15.6992Z" fill="#F4F4F4"/>
<path id="Vector_29" d="M15.5974 21.3337H9.99933V26.9681H15.5974V21.3337Z" fill="#F4F4F4"/>
<path id="Vector_30" d="M26.799 21.3337H21.201V26.9681H26.799V21.3337Z" fill="#F4F4F4"/>
<path id="Vector_31" d="M32.3971 21.3337H26.7991V26.9681H32.3971V21.3337Z" fill="#F4F4F4"/>
<path id="Vector_32" d="M37.9951 21.3337H32.3971V26.9681H37.9951V21.3337Z" fill="#F4F4F4"/>
<path id="Vector_33" d="M49.1968 21.3337H43.5988V26.9681H49.1968V21.3337Z" fill="#F4F4F4"/>
<path id="Vector_34" d="M65.9965 21.3337H60.3985V26.9681H65.9965V21.3337Z" fill="#F4F4F4"/>
<path id="Vector_35" d="M77.1982 21.3337H71.6002V26.9681H77.1982V21.3337Z" fill="#F4F4F4"/>
<path id="Vector_36" d="M88.3999 21.3337H82.8018V26.9681H88.3999V21.3337Z" fill="#F4F4F4"/>
<path id="Vector_37" d="M99.596 21.3337H93.9979V26.9681H99.596V21.3337Z" fill="#F4F4F4"/>
<path id="Vector_38" d="M105.2 21.3337H99.6016V26.9681H105.2V21.3337Z" fill="#F4F4F4"/>
<path id="Vector_39" d="M116.396 21.3337H110.798V26.9681H116.396V21.3337Z" fill="#F4F4F4"/>
<path id="Vector_40" d="M127.597 21.3337H121.999V26.9681H127.597V21.3337Z" fill="#F4F4F4"/>
<path id="Vector_41" d="M133.195 21.3337H127.597V26.9681H133.195V21.3337Z" fill="#F4F4F4"/>
<path id="Vector_42" d="M138.799 21.3337H133.201V26.9681H138.799V21.3337Z" fill="#F4F4F4"/>
<path id="Vector_43" d="M149.995 21.3337H144.397V26.9681H149.995V21.3337Z" fill="#F4F4F4"/>
<path id="Vector_44" d="M15.5974 26.9678H9.99933V32.6021H15.5974V26.9678Z" fill="#F4F4F4"/>
<path id="Vector_45" d="M26.799 26.9678H21.201V32.6021H26.799V26.9678Z" fill="#F4F4F4"/>
<path id="Vector_46" d="M32.3971 26.9678H26.7991V32.6021H32.3971V26.9678Z" fill="#F4F4F4"/>
<path id="Vector_47" d="M37.9951 26.9678H32.3971V32.6021H37.9951V26.9678Z" fill="#F4F4F4"/>
<path id="Vector_48" d="M49.1968 26.9678H43.5988V32.6021H49.1968V26.9678Z" fill="#F4F4F4"/>
<path id="Vector_49" d="M71.6002 26.9678H66.0021V32.6021H71.6002V26.9678Z" fill="#F4F4F4"/>
<path id="Vector_50" d="M77.1982 26.9678H71.6002V32.6021H77.1982V26.9678Z" fill="#F4F4F4"/>
<path id="Vector_51" d="M88.3999 26.9678H82.8018V32.6021H88.3999V26.9678Z" fill="#F4F4F4"/>
<path id="Vector_52" d="M99.596 26.9678H93.9979V32.6021H99.596V26.9678Z" fill="#F4F4F4"/>
<path id="Vector_53" d="M105.2 26.9678H99.6016V32.6021H105.2V26.9678Z" fill="#F4F4F4"/>
<path id="Vector_54" d="M116.396 26.9678H110.798V32.6021H116.396V26.9678Z" fill="#F4F4F4"/>
<path id="Vector_55" d="M127.597 26.9678H121.999V32.6021H127.597V26.9678Z" fill="#F4F4F4"/>
<path id="Vector_56" d="M133.195 26.9678H127.597V32.6021H133.195V26.9678Z" fill="#F4F4F4"/>
<path id="Vector_57" d="M138.799 26.9678H133.201V32.6021H138.799V26.9678Z" fill="#F4F4F4"/>
<path id="Vector_58" d="M149.995 26.9678H144.397V32.6021H149.995V26.9678Z" fill="#F4F4F4"/>
<path id="Vector_59" d="M15.5974 32.6023H9.99933V38.2367H15.5974V32.6023Z" fill="#F4F4F4"/>
<path id="Vector_60" d="M26.799 32.6023H21.201V38.2367H26.799V32.6023Z" fill="#F4F4F4"/>
<path id="Vector_61" d="M32.3971 32.6023H26.7991V38.2367H32.3971V32.6023Z" fill="#F4F4F4"/>
<path id="Vector_62" d="M37.9951 32.6023H32.3971V38.2367H37.9951V32.6023Z" fill="#F4F4F4"/>
<path id="Vector_63" d="M49.1968 32.6023H43.5988V38.2367H49.1968V32.6023Z" fill="#F4F4F4"/>
<path id="Vector_64" d="M71.6002 32.6023H66.0021V38.2367H71.6002V32.6023Z" fill="#F4F4F4"/>
<path id="Vector_65" d="M77.1982 32.6023H71.6002V38.2367H77.1982V32.6023Z" fill="#F4F4F4"/>
<path id="Vector_66" d="M82.7962 32.6023H77.1982V38.2367H82.7962V32.6023Z" fill="#F4F4F4"/>
<path id="Vector_67" d="M93.9979 32.6023H88.3999V38.2367H93.9979V32.6023Z" fill="#F4F4F4"/>
<path id="Vector_68" d="M105.2 32.6023H99.6016V38.2367H105.2V32.6023Z" fill="#F4F4F4"/>
<path id="Vector_69" d="M116.396 32.6023H110.798V38.2367H116.396V32.6023Z" fill="#F4F4F4"/>
<path id="Vector_70" d="M127.597 32.6023H121.999V38.2367H127.597V32.6023Z" fill="#F4F4F4"/>
<path id="Vector_71" d="M133.195 32.6023H127.597V38.2367H133.195V32.6023Z" fill="#F4F4F4"/>
<path id="Vector_72" d="M138.799 32.6023H133.201V38.2367H138.799V32.6023Z" fill="#F4F4F4"/>
<path id="Vector_73" d="M149.995 32.6023H144.397V38.2367H149.995V32.6023Z" fill="#F4F4F4"/>
<path id="Vector_74" d="M15.5974 38.2368H9.99933V43.8712H15.5974V38.2368Z" fill="#F4F4F4"/>
<path id="Vector_75" d="M49.1968 38.2368H43.5988V43.8712H49.1968V38.2368Z" fill="#F4F4F4"/>
<path id="Vector_76" d="M65.9965 38.2368H60.3985V43.8712H65.9965V38.2368Z" fill="#F4F4F4"/>
<path id="Vector_77" d="M77.1982 38.2368H71.6002V43.8712H77.1982V38.2368Z" fill="#F4F4F4"/>
<path id="Vector_78" d="M93.9979 38.2368H88.3999V43.8712H93.9979V38.2368Z" fill="#F4F4F4"/>
<path id="Vector_79" d="M105.2 38.2368H99.6016V43.8712H105.2V38.2368Z" fill="#F4F4F4"/>
<path id="Vector_80" d="M116.396 38.2368H110.798V43.8712H116.396V38.2368Z" fill="#F4F4F4"/>
<path id="Vector_81" d="M149.995 38.2368H144.397V43.8712H149.995V38.2368Z" fill="#F4F4F4"/>
<path id="Vector_82" d="M15.5974 43.8711H9.99933V49.5055H15.5974V43.8711Z" fill="#F4F4F4"/>
<path id="Vector_83" d="M21.1954 43.8711H15.5974V49.5055H21.1954V43.8711Z" fill="#F4F4F4"/>
<path id="Vector_84" d="M26.799 43.8711H21.201V49.5055H26.799V43.8711Z" fill="#F4F4F4"/>
<path id="Vector_85" d="M32.3971 43.8711H26.7991V49.5055H32.3971V43.8711Z" fill="#F4F4F4"/>
<path id="Vector_86" d="M37.9951 43.8711H32.3971V49.5055H37.9951V43.8711Z" fill="#F4F4F4"/>
<path id="Vector_87" d="M43.5988 43.8711H38.0007V49.5055H43.5988V43.8711Z" fill="#F4F4F4"/>
<path id="Vector_88" d="M49.1968 43.8711H43.5988V49.5055H49.1968V43.8711Z" fill="#F4F4F4"/>
<path id="Vector_89" d="M60.3985 43.8711H54.8004V49.5055H60.3985V43.8711Z" fill="#F4F4F4"/>
<path id="Vector_90" d="M71.6002 43.8711H66.0021V49.5055H71.6002V43.8711Z" fill="#F4F4F4"/>
<path id="Vector_91" d="M82.7962 43.8711H77.1982V49.5055H82.7962V43.8711Z" fill="#F4F4F4"/>
<path id="Vector_92" d="M93.9979 43.8711H88.3999V49.5055H93.9979V43.8711Z" fill="#F4F4F4"/>
<path id="Vector_93" d="M105.2 43.8711H99.6016V49.5055H105.2V43.8711Z" fill="#F4F4F4"/>
<path id="Vector_94" d="M116.396 43.8711H110.798V49.5055H116.396V43.8711Z" fill="#F4F4F4"/>
<path id="Vector_95" d="M121.999 43.8711H116.401V49.5055H121.999V43.8711Z" fill="#F4F4F4"/>
<path id="Vector_96" d="M127.597 43.8711H121.999V49.5055H127.597V43.8711Z" fill="#F4F4F4"/>
<path id="Vector_97" d="M133.195 43.8711H127.597V49.5055H133.195V43.8711Z" fill="#F4F4F4"/>
<path id="Vector_98" d="M138.799 43.8711H133.201V49.5055H138.799V43.8711Z" fill="#F4F4F4"/>
<path id="Vector_99" d="M144.397 43.8711H138.799V49.5055H144.397V43.8711Z" fill="#F4F4F4"/>
<path id="Vector_100" d="M149.995 43.8711H144.397V49.5055H149.995V43.8711Z" fill="#F4F4F4"/>
<path id="Vector_101" d="M60.3985 49.5054H54.8004V55.1397H60.3985V49.5054Z" fill="#F4F4F4"/>
<path id="Vector_102" d="M65.9965 49.5054H60.3985V55.1397H65.9965V49.5054Z" fill="#F4F4F4"/>
<path id="Vector_103" d="M82.7962 49.5054H77.1982V55.1397H82.7962V49.5054Z" fill="#F4F4F4"/>
<path id="Vector_104" d="M88.3999 49.5054H82.8018V55.1397H88.3999V49.5054Z" fill="#F4F4F4"/>
<path id="Vector_105" d="M15.5974 55.1455H9.99933V60.7799H15.5974V55.1455Z" fill="#F4F4F4"/>
<path id="Vector_106" d="M21.1954 55.1455H15.5974V60.7799H21.1954V55.1455Z" fill="#F4F4F4"/>
<path id="Vector_107" d="M32.3971 55.1455H26.7991V60.7799H32.3971V55.1455Z" fill="#F4F4F4"/>
<path id="Vector_108" d="M37.9951 55.1455H32.3971V60.7799H37.9951V55.1455Z" fill="#F4F4F4"/>
<path id="Vector_109" d="M49.1968 55.1455H43.5988V60.7799H49.1968V55.1455Z" fill="#F4F4F4"/>
<path id="Vector_110" d="M65.9965 55.1455H60.3985V60.7799H65.9965V55.1455Z" fill="#F4F4F4"/>
<path id="Vector_111" d="M82.7962 55.1455H77.1982V60.7799H82.7962V55.1455Z" fill="#F4F4F4"/>
<path id="Vector_112" d="M93.9979 55.1455H88.3999V60.7799H93.9979V55.1455Z" fill="#F4F4F4"/>
<path id="Vector_113" d="M99.596 55.1455H93.9979V60.7799H99.596V55.1455Z" fill="#F4F4F4"/>
<path id="Vector_114" d="M116.396 55.1455H110.798V60.7799H116.396V55.1455Z" fill="#F4F4F4"/>
<path id="Vector_115" d="M149.995 55.1455H144.397V60.7799H149.995V55.1455Z" fill="#F4F4F4"/>
<path id="Vector_116" d="M15.5974 60.7798H9.99933V66.4141H15.5974V60.7798Z" fill="#F4F4F4"/>
<path id="Vector_117" d="M21.1954 60.7798H15.5974V66.4141H21.1954V60.7798Z" fill="#F4F4F4"/>
<path id="Vector_118" d="M26.799 60.7798H21.201V66.4141H26.799V60.7798Z" fill="#F4F4F4"/>
<path id="Vector_119" d="M37.9951 60.7798H32.3971V66.4141H37.9951V60.7798Z" fill="#F4F4F4"/>
<path id="Vector_120" d="M43.5988 60.7798H38.0007V66.4141H43.5988V60.7798Z" fill="#F4F4F4"/>
<path id="Vector_121" d="M54.8004 60.7798H49.2024V66.4141H54.8004V60.7798Z" fill="#F4F4F4"/>
<path id="Vector_122" d="M71.6002 60.7798H66.0021V66.4141H71.6002V60.7798Z" fill="#F4F4F4"/>
<path id="Vector_123" d="M88.3999 60.7798H82.8018V66.4141H88.3999V60.7798Z" fill="#F4F4F4"/>
<path id="Vector_124" d="M93.9979 60.7798H88.3999V66.4141H93.9979V60.7798Z" fill="#F4F4F4"/>
<path id="Vector_125" d="M99.596 60.7798H93.9979V66.4141H99.596V60.7798Z" fill="#F4F4F4"/>
<path id="Vector_126" d="M110.798 60.7798H105.2V66.4141H110.798V60.7798Z" fill="#F4F4F4"/>
<path id="Vector_127" d="M121.999 60.7798H116.401V66.4141H121.999V60.7798Z" fill="#F4F4F4"/>
<path id="Vector_128" d="M127.597 60.7798H121.999V66.4141H127.597V60.7798Z" fill="#F4F4F4"/>
<path id="Vector_129" d="M133.195 60.7798H127.597V66.4141H133.195V60.7798Z" fill="#F4F4F4"/>
<path id="Vector_130" d="M138.799 60.7798H133.201V66.4141H138.799V60.7798Z" fill="#F4F4F4"/>
<path id="Vector_131" d="M144.397 60.7798H138.799V66.4141H144.397V60.7798Z" fill="#F4F4F4"/>
<path id="Vector_132" d="M15.5974 66.4141H9.99933V72.0484H15.5974V66.4141Z" fill="#F4F4F4"/>
<path id="Vector_133" d="M26.799 66.4141H21.201V72.0484H26.799V66.4141Z" fill="#F4F4F4"/>
<path id="Vector_134" d="M37.9951 66.4141H32.3971V72.0484H37.9951V66.4141Z" fill="#F4F4F4"/>
<path id="Vector_135" d="M49.1968 66.4141H43.5988V72.0484H49.1968V66.4141Z" fill="#F4F4F4"/>
<path id="Vector_136" d="M54.8004 66.4141H49.2024V72.0484H54.8004V66.4141Z" fill="#F4F4F4"/>
<path id="Vector_137" d="M60.3985 66.4141H54.8004V72.0484H60.3985V66.4141Z" fill="#F4F4F4"/>
<path id="Vector_138" d="M65.9965 66.4141H60.3985V72.0484H65.9965V66.4141Z" fill="#F4F4F4"/>
<path id="Vector_139" d="M82.7962 66.4141H77.1982V72.0484H82.7962V66.4141Z" fill="#F4F4F4"/>
<path id="Vector_140" d="M99.596 66.4141H93.9979V72.0484H99.596V66.4141Z" fill="#F4F4F4"/>
<path id="Vector_141" d="M105.2 66.4141H99.6016V72.0484H105.2V66.4141Z" fill="#F4F4F4"/>
<path id="Vector_142" d="M116.396 66.4141H110.798V72.0484H116.396V66.4141Z" fill="#F4F4F4"/>
<path id="Vector_143" d="M121.999 66.4141H116.401V72.0484H121.999V66.4141Z" fill="#F4F4F4"/>
<path id="Vector_144" d="M133.195 66.4141H127.597V72.0484H133.195V66.4141Z" fill="#F4F4F4"/>
<path id="Vector_145" d="M149.995 66.4141H144.397V72.0484H149.995V66.4141Z" fill="#F4F4F4"/>
<path id="Vector_146" d="M15.5974 72.0483H9.99933V77.6827H15.5974V72.0483Z" fill="#F4F4F4"/>
<path id="Vector_147" d="M21.1954 72.0483H15.5974V77.6827H21.1954V72.0483Z" fill="#F4F4F4"/>
<path id="Vector_148" d="M54.8004 72.0483H49.2024V77.6827H54.8004V72.0483Z" fill="#F4F4F4"/>
<path id="Vector_149" d="M60.3985 72.0483H54.8004V77.6827H60.3985V72.0483Z" fill="#F4F4F4"/>
<path id="Vector_150" d="M99.596 72.0483H93.9979V77.6827H99.596V72.0483Z" fill="#F4F4F4"/>
<path id="Vector_151" d="M121.999 72.0483H116.401V77.6827H121.999V72.0483Z" fill="#F4F4F4"/>
<path id="Vector_152" d="M133.195 72.0483H127.597V77.6827H133.195V72.0483Z" fill="#F4F4F4"/>
<path id="Vector_153" d="M138.799 72.0483H133.201V77.6827H138.799V72.0483Z" fill="#F4F4F4"/>
<path id="Vector_154" d="M144.397 72.0483H138.799V77.6827H144.397V72.0483Z" fill="#F4F4F4"/>
<path id="Vector_155" d="M149.995 72.0483H144.397V77.6827H149.995V72.0483Z" fill="#F4F4F4"/>
<path id="Vector_156" d="M26.799 77.6829H21.201V83.3172H26.799V77.6829Z" fill="#F4F4F4"/>
<path id="Vector_157" d="M32.3971 77.6829H26.7991V83.3172H32.3971V77.6829Z" fill="#F4F4F4"/>
<path id="Vector_158" d="M49.1968 77.6829H43.5988V83.3172H49.1968V77.6829Z" fill="#F4F4F4"/>
<path id="Vector_159" d="M60.3985 77.6829H54.8004V83.3172H60.3985V77.6829Z" fill="#F4F4F4"/>
<path id="Vector_160" d="M65.9965 77.6829H60.3985V83.3172H65.9965V77.6829Z" fill="#F4F4F4"/>
<path id="Vector_161" d="M71.6002 77.6829H66.0021V83.3172H71.6002V77.6829Z" fill="#F4F4F4"/>
<path id="Vector_162" d="M93.9979 77.6829H88.3999V83.3172H93.9979V77.6829Z" fill="#F4F4F4"/>
<path id="Vector_163" d="M99.596 77.6829H93.9979V83.3172H99.596V77.6829Z" fill="#F4F4F4"/>
<path id="Vector_164" d="M116.396 77.6829H110.798V83.3172H116.396V77.6829Z" fill="#F4F4F4"/>
<path id="Vector_165" d="M149.995 77.6829H144.397V83.3172H149.995V77.6829Z" fill="#F4F4F4"/>
<path id="Vector_166" d="M15.5974 83.3171H9.99933V88.9515H15.5974V83.3171Z" fill="#F4F4F4"/>
<path id="Vector_167" d="M26.799 83.3171H21.201V88.9515H26.799V83.3171Z" fill="#F4F4F4"/>
<path id="Vector_168" d="M32.3971 83.3171H26.7991V88.9515H32.3971V83.3171Z" fill="#F4F4F4"/>
<path id="Vector_169" d="M43.5988 83.3171H38.0007V88.9515H43.5988V83.3171Z" fill="#F4F4F4"/>
<path id="Vector_170" d="M54.8004 83.3171H49.2024V88.9515H54.8004V83.3171Z" fill="#F4F4F4"/>
<path id="Vector_171" d="M71.6002 83.3171H66.0021V88.9515H71.6002V83.3171Z" fill="#F4F4F4"/>
<path id="Vector_172" d="M82.7962 83.3171H77.1982V88.9515H82.7962V83.3171Z" fill="#F4F4F4"/>
<path id="Vector_173" d="M93.9979 83.3171H88.3999V88.9515H93.9979V83.3171Z" fill="#F4F4F4"/>
<path id="Vector_174" d="M99.596 83.3171H93.9979V88.9515H99.596V83.3171Z" fill="#F4F4F4"/>
<path id="Vector_175" d="M105.2 83.3171H99.6016V88.9515H105.2V83.3171Z" fill="#F4F4F4"/>
<path id="Vector_176" d="M110.798 83.3171H105.2V88.9515H110.798V83.3171Z" fill="#F4F4F4"/>
<path id="Vector_177" d="M127.597 83.3171H121.999V88.9515H127.597V83.3171Z" fill="#F4F4F4"/>
<path id="Vector_178" d="M144.397 83.3171H138.799V88.9515H144.397V83.3171Z" fill="#F4F4F4"/>
<path id="Vector_179" d="M15.5974 88.9517H9.99933V94.586H15.5974V88.9517Z" fill="#F4F4F4"/>
<path id="Vector_180" d="M21.1954 88.9517H15.5974V94.586H21.1954V88.9517Z" fill="#F4F4F4"/>
<path id="Vector_181" d="M32.3971 88.9517H26.7991V94.586H32.3971V88.9517Z" fill="#F4F4F4"/>
<path id="Vector_182" d="M37.9951 88.9517H32.3971V94.586H37.9951V88.9517Z" fill="#F4F4F4"/>
<path id="Vector_183" d="M43.5988 88.9517H38.0007V94.586H43.5988V88.9517Z" fill="#F4F4F4"/>
<path id="Vector_184" d="M49.1968 88.9517H43.5988V94.586H49.1968V88.9517Z" fill="#F4F4F4"/>
<path id="Vector_185" d="M54.8004 88.9517H49.2024V94.586H54.8004V88.9517Z" fill="#F4F4F4"/>
<path id="Vector_186" d="M65.9965 88.9517H60.3985V94.586H65.9965V88.9517Z" fill="#F4F4F4"/>
<path id="Vector_187" d="M93.9979 88.9517H88.3999V94.586H93.9979V88.9517Z" fill="#F4F4F4"/>
<path id="Vector_188" d="M99.596 88.9517H93.9979V94.586H99.596V88.9517Z" fill="#F4F4F4"/>
<path id="Vector_189" d="M110.798 88.9517H105.2V94.586H110.798V88.9517Z" fill="#F4F4F4"/>
<path id="Vector_190" d="M116.396 88.9517H110.798V94.586H116.396V88.9517Z" fill="#F4F4F4"/>
<path id="Vector_191" d="M127.597 88.9517H121.999V94.586H127.597V88.9517Z" fill="#F4F4F4"/>
<path id="Vector_192" d="M133.195 88.9517H127.597V94.586H133.195V88.9517Z" fill="#F4F4F4"/>
<path id="Vector_193" d="M138.799 88.9517H133.201V94.586H138.799V88.9517Z" fill="#F4F4F4"/>
<path id="Vector_194" d="M144.397 88.9517H138.799V94.586H144.397V88.9517Z" fill="#F4F4F4"/>
<path id="Vector_195" d="M149.995 88.9517H144.397V94.586H149.995V88.9517Z" fill="#F4F4F4"/>
<path id="Vector_196" d="M15.5974 94.5859H9.99933V100.22H15.5974V94.5859Z" fill="#F4F4F4"/>
<path id="Vector_197" d="M43.5988 94.5859H38.0007V100.22H43.5988V94.5859Z" fill="#F4F4F4"/>
<path id="Vector_198" d="M54.8004 94.5859H49.2024V100.22H54.8004V94.5859Z" fill="#F4F4F4"/>
<path id="Vector_199" d="M65.9965 94.5859H60.3985V100.22H65.9965V94.5859Z" fill="#F4F4F4"/>
<path id="Vector_200" d="M82.7962 94.5859H77.1982V100.22H82.7962V94.5859Z" fill="#F4F4F4"/>
<path id="Vector_201" d="M93.9979 94.5859H88.3999V100.22H93.9979V94.5859Z" fill="#F4F4F4"/>
<path id="Vector_202" d="M105.2 94.5859H99.6016V100.22H105.2V94.5859Z" fill="#F4F4F4"/>
<path id="Vector_203" d="M110.798 94.5859H105.2V100.22H110.798V94.5859Z" fill="#F4F4F4"/>
<path id="Vector_204" d="M121.999 94.5859H116.401V100.22H121.999V94.5859Z" fill="#F4F4F4"/>
<path id="Vector_205" d="M133.195 94.5859H127.597V100.22H133.195V94.5859Z" fill="#F4F4F4"/>
<path id="Vector_206" d="M138.799 94.5859H133.201V100.22H138.799V94.5859Z" fill="#F4F4F4"/>
<path id="Vector_207" d="M149.995 94.5859H144.397V100.22H149.995V94.5859Z" fill="#F4F4F4"/>
<path id="Vector_208" d="M15.5974 100.22H9.99933V105.855H15.5974V100.22Z" fill="#F4F4F4"/>
<path id="Vector_209" d="M26.799 100.22H21.201V105.855H26.799V100.22Z" fill="#F4F4F4"/>
<path id="Vector_210" d="M32.3971 100.22H26.7991V105.855H32.3971V100.22Z" fill="#F4F4F4"/>
<path id="Vector_211" d="M37.9951 100.22H32.3971V105.855H37.9951V100.22Z" fill="#F4F4F4"/>
<path id="Vector_212" d="M49.1968 100.22H43.5988V105.855H49.1968V100.22Z" fill="#F4F4F4"/>
<path id="Vector_213" d="M54.8004 100.22H49.2024V105.855H54.8004V100.22Z" fill="#F4F4F4"/>
<path id="Vector_214" d="M71.6002 100.22H66.0021V105.855H71.6002V100.22Z" fill="#F4F4F4"/>
<path id="Vector_215" d="M77.1982 100.22H71.6002V105.855H77.1982V100.22Z" fill="#F4F4F4"/>
<path id="Vector_216" d="M82.7962 100.22H77.1982V105.855H82.7962V100.22Z" fill="#F4F4F4"/>
<path id="Vector_217" d="M88.3999 100.22H82.8018V105.855H88.3999V100.22Z" fill="#F4F4F4"/>
<path id="Vector_218" d="M99.596 100.22H93.9979V105.855H99.596V100.22Z" fill="#F4F4F4"/>
<path id="Vector_219" d="M105.2 100.22H99.6016V105.855H105.2V100.22Z" fill="#F4F4F4"/>
<path id="Vector_220" d="M110.798 100.22H105.2V105.855H110.798V100.22Z" fill="#F4F4F4"/>
<path id="Vector_221" d="M116.396 100.22H110.798V105.855H116.396V100.22Z" fill="#F4F4F4"/>
<path id="Vector_222" d="M121.999 100.22H116.401V105.855H121.999V100.22Z" fill="#F4F4F4"/>
<path id="Vector_223" d="M127.597 100.22H121.999V105.855H127.597V100.22Z" fill="#F4F4F4"/>
<path id="Vector_224" d="M138.799 100.22H133.201V105.855H138.799V100.22Z" fill="#F4F4F4"/>
<path id="Vector_225" d="M144.397 100.22H138.799V105.855H144.397V100.22Z" fill="#F4F4F4"/>
<path id="Vector_226" d="M60.3985 105.86H54.8004V111.494H60.3985V105.86Z" fill="#F4F4F4"/>
<path id="Vector_227" d="M65.9965 105.86H60.3985V111.494H65.9965V105.86Z" fill="#F4F4F4"/>
<path id="Vector_228" d="M77.1982 105.86H71.6002V111.494H77.1982V105.86Z" fill="#F4F4F4"/>
<path id="Vector_229" d="M105.2 105.86H99.6016V111.494H105.2V105.86Z" fill="#F4F4F4"/>
<path id="Vector_230" d="M127.597 105.86H121.999V111.494H127.597V105.86Z" fill="#F4F4F4"/>
<path id="Vector_231" d="M138.799 105.86H133.201V111.494H138.799V105.86Z" fill="#F4F4F4"/>
<path id="Vector_232" d="M144.397 105.86H138.799V111.494H144.397V105.86Z" fill="#F4F4F4"/>
<path id="Vector_233" d="M15.5974 111.495H9.99933V117.129H15.5974V111.495Z" fill="#F4F4F4"/>
<path id="Vector_234" d="M21.1954 111.495H15.5974V117.129H21.1954V111.495Z" fill="#F4F4F4"/>
<path id="Vector_235" d="M26.799 111.495H21.201V117.129H26.799V111.495Z" fill="#F4F4F4"/>
<path id="Vector_236" d="M32.3971 111.495H26.7991V117.129H32.3971V111.495Z" fill="#F4F4F4"/>
<path id="Vector_237" d="M37.9951 111.495H32.3971V117.129H37.9951V111.495Z" fill="#F4F4F4"/>
<path id="Vector_238" d="M43.5988 111.495H38.0007V117.129H43.5988V111.495Z" fill="#F4F4F4"/>
<path id="Vector_239" d="M49.1968 111.495H43.5988V117.129H49.1968V111.495Z" fill="#F4F4F4"/>
<path id="Vector_240" d="M71.6002 111.495H66.0021V117.129H71.6002V111.495Z" fill="#F4F4F4"/>
<path id="Vector_241" d="M82.7962 111.495H77.1982V117.129H82.7962V111.495Z" fill="#F4F4F4"/>
<path id="Vector_242" d="M93.9979 111.495H88.3999V117.129H93.9979V111.495Z" fill="#F4F4F4"/>
<path id="Vector_243" d="M105.2 111.495H99.6016V117.129H105.2V111.495Z" fill="#F4F4F4"/>
<path id="Vector_244" d="M116.396 111.495H110.798V117.129H116.396V111.495Z" fill="#F4F4F4"/>
<path id="Vector_245" d="M127.597 111.495H121.999V117.129H127.597V111.495Z" fill="#F4F4F4"/>
<path id="Vector_246" d="M149.995 111.495H144.397V117.129H149.995V111.495Z" fill="#F4F4F4"/>
<path id="Vector_247" d="M15.5974 117.129H9.99933V122.763H15.5974V117.129Z" fill="#F4F4F4"/>
<path id="Vector_248" d="M49.1968 117.129H43.5988V122.763H49.1968V117.129Z" fill="#F4F4F4"/>
<path id="Vector_249" d="M77.1982 117.129H71.6002V122.763H77.1982V117.129Z" fill="#F4F4F4"/>
<path id="Vector_250" d="M88.3999 117.129H82.8018V122.763H88.3999V117.129Z" fill="#F4F4F4"/>
<path id="Vector_251" d="M99.596 117.129H93.9979V122.763H99.596V117.129Z" fill="#F4F4F4"/>
<path id="Vector_252" d="M105.2 117.129H99.6016V122.763H105.2V117.129Z" fill="#F4F4F4"/>
<path id="Vector_253" d="M127.597 117.129H121.999V122.763H127.597V117.129Z" fill="#F4F4F4"/>
<path id="Vector_254" d="M149.995 117.129H144.397V122.763H149.995V117.129Z" fill="#F4F4F4"/>
<path id="Vector_255" d="M15.5974 122.763H9.99933V128.398H15.5974V122.763Z" fill="#F4F4F4"/>
<path id="Vector_256" d="M26.799 122.763H21.201V128.398H26.799V122.763Z" fill="#F4F4F4"/>
<path id="Vector_257" d="M32.3971 122.763H26.7991V128.398H32.3971V122.763Z" fill="#F4F4F4"/>
<path id="Vector_258" d="M37.9951 122.763H32.3971V128.398H37.9951V122.763Z" fill="#F4F4F4"/>
<path id="Vector_259" d="M49.1968 122.763H43.5988V128.398H49.1968V122.763Z" fill="#F4F4F4"/>
<path id="Vector_260" d="M60.3985 122.763H54.8004V128.398H60.3985V122.763Z" fill="#F4F4F4"/>
<path id="Vector_261" d="M71.6002 122.763H66.0021V128.398H71.6002V122.763Z" fill="#F4F4F4"/>
<path id="Vector_262" d="M77.1982 122.763H71.6002V128.398H77.1982V122.763Z" fill="#F4F4F4"/>
<path id="Vector_263" d="M82.7962 122.763H77.1982V128.398H82.7962V122.763Z" fill="#F4F4F4"/>
<path id="Vector_264" d="M93.9979 122.763H88.3999V128.398H93.9979V122.763Z" fill="#F4F4F4"/>
<path id="Vector_265" d="M99.596 122.763H93.9979V128.398H99.596V122.763Z" fill="#F4F4F4"/>
<path id="Vector_266" d="M105.2 122.763H99.6016V128.398H105.2V122.763Z" fill="#F4F4F4"/>
<path id="Vector_267" d="M110.798 122.763H105.2V128.398H110.798V122.763Z" fill="#F4F4F4"/>
<path id="Vector_268" d="M116.396 122.763H110.798V128.398H116.396V122.763Z" fill="#F4F4F4"/>
<path id="Vector_269" d="M121.999 122.763H116.401V128.398H121.999V122.763Z" fill="#F4F4F4"/>
<path id="Vector_270" d="M127.597 122.763H121.999V128.398H127.597V122.763Z" fill="#F4F4F4"/>
<path id="Vector_271" d="M15.5974 128.398H9.99933V134.032H15.5974V128.398Z" fill="#F4F4F4"/>
<path id="Vector_272" d="M26.799 128.398H21.201V134.032H26.799V128.398Z" fill="#F4F4F4"/>
<path id="Vector_273" d="M32.3971 128.398H26.7991V134.032H32.3971V128.398Z" fill="#F4F4F4"/>
<path id="Vector_274" d="M37.9951 128.398H32.3971V134.032H37.9951V128.398Z" fill="#F4F4F4"/>
<path id="Vector_275" d="M49.1968 128.398H43.5988V134.032H49.1968V128.398Z" fill="#F4F4F4"/>
<path id="Vector_276" d="M60.3985 128.398H54.8004V134.032H60.3985V128.398Z" fill="#F4F4F4"/>
<path id="Vector_277" d="M65.9965 128.398H60.3985V134.032H65.9965V128.398Z" fill="#F4F4F4"/>
<path id="Vector_278" d="M82.7962 128.398H77.1982V134.032H82.7962V128.398Z" fill="#F4F4F4"/>
<path id="Vector_279" d="M88.3999 128.398H82.8018V134.032H88.3999V128.398Z" fill="#F4F4F4"/>
<path id="Vector_280" d="M93.9979 128.398H88.3999V134.032H93.9979V128.398Z" fill="#F4F4F4"/>
<path id="Vector_281" d="M116.396 128.398H110.798V134.032H116.396V128.398Z" fill="#F4F4F4"/>
<path id="Vector_282" d="M144.397 128.398H138.799V134.032H144.397V128.398Z" fill="#F4F4F4"/>
<path id="Vector_283" d="M149.995 128.398H144.397V134.032H149.995V128.398Z" fill="#F4F4F4"/>
<path id="Vector_284" d="M15.5974 134.032H9.99933V139.667H15.5974V134.032Z" fill="#F4F4F4"/>
<path id="Vector_285" d="M26.799 134.032H21.201V139.667H26.799V134.032Z" fill="#F4F4F4"/>
<path id="Vector_286" d="M32.3971 134.032H26.7991V139.667H32.3971V134.032Z" fill="#F4F4F4"/>
<path id="Vector_287" d="M37.9951 134.032H32.3971V139.667H37.9951V134.032Z" fill="#F4F4F4"/>
<path id="Vector_288" d="M49.1968 134.032H43.5988V139.667H49.1968V134.032Z" fill="#F4F4F4"/>
<path id="Vector_289" d="M65.9965 134.032H60.3985V139.667H65.9965V134.032Z" fill="#F4F4F4"/>
<path id="Vector_290" d="M77.1982 134.032H71.6002V139.667H77.1982V134.032Z" fill="#F4F4F4"/>
<path id="Vector_291" d="M88.3999 134.032H82.8018V139.667H88.3999V134.032Z" fill="#F4F4F4"/>
<path id="Vector_292" d="M99.596 134.032H93.9979V139.667H99.596V134.032Z" fill="#F4F4F4"/>
<path id="Vector_293" d="M110.798 134.032H105.2V139.667H110.798V134.032Z" fill="#F4F4F4"/>
<path id="Vector_294" d="M127.597 134.032H121.999V139.667H127.597V134.032Z" fill="#F4F4F4"/>
<path id="Vector_295" d="M133.195 134.032H127.597V139.667H133.195V134.032Z" fill="#F4F4F4"/>
<path id="Vector_296" d="M138.799 134.032H133.201V139.667H138.799V134.032Z" fill="#F4F4F4"/>
<path id="Vector_297" d="M144.397 134.032H138.799V139.667H144.397V134.032Z" fill="#F4F4F4"/>
<path id="Vector_298" d="M149.995 134.032H144.397V139.667H149.995V134.032Z" fill="#F4F4F4"/>
<path id="Vector_299" d="M15.5974 139.666H9.99933V145.301H15.5974V139.666Z" fill="#F4F4F4"/>
<path id="Vector_300" d="M49.1968 139.666H43.5988V145.301H49.1968V139.666Z" fill="#F4F4F4"/>
<path id="Vector_301" d="M60.3985 139.666H54.8004V145.301H60.3985V139.666Z" fill="#F4F4F4"/>
<path id="Vector_302" d="M71.6002 139.666H66.0021V145.301H71.6002V139.666Z" fill="#F4F4F4"/>
<path id="Vector_303" d="M77.1982 139.666H71.6002V145.301H77.1982V139.666Z" fill="#F4F4F4"/>
<path id="Vector_304" d="M93.9979 139.666H88.3999V145.301H93.9979V139.666Z" fill="#F4F4F4"/>
<path id="Vector_305" d="M99.596 139.666H93.9979V145.301H99.596V139.666Z" fill="#F4F4F4"/>
<path id="Vector_306" d="M121.999 139.666H116.401V145.301H121.999V139.666Z" fill="#F4F4F4"/>
<path id="Vector_307" d="M127.597 139.666H121.999V145.301H127.597V139.666Z" fill="#F4F4F4"/>
<path id="Vector_308" d="M138.799 139.666H133.201V145.301H138.799V139.666Z" fill="#F4F4F4"/>
<path id="Vector_309" d="M144.397 139.666H138.799V145.301H144.397V139.666Z" fill="#F4F4F4"/>
<path id="Vector_310" d="M149.995 139.666H144.397V145.301H149.995V139.666Z" fill="#F4F4F4"/>
<path id="Vector_311" d="M15.5974 145.301H9.99933V150.935H15.5974V145.301Z" fill="#F4F4F4"/>
<path id="Vector_312" d="M21.1954 145.301H15.5974V150.935H21.1954V145.301Z" fill="#F4F4F4"/>
<path id="Vector_313" d="M26.799 145.301H21.201V150.935H26.799V145.301Z" fill="#F4F4F4"/>
<path id="Vector_314" d="M32.3971 145.301H26.7991V150.935H32.3971V145.301Z" fill="#F4F4F4"/>
<path id="Vector_315" d="M37.9951 145.301H32.3971V150.935H37.9951V145.301Z" fill="#F4F4F4"/>
<path id="Vector_316" d="M43.5988 145.301H38.0007V150.935H43.5988V145.301Z" fill="#F4F4F4"/>
<path id="Vector_317" d="M49.1968 145.301H43.5988V150.935H49.1968V145.301Z" fill="#F4F4F4"/>
<path id="Vector_318" d="M60.3985 145.301H54.8004V150.935H60.3985V145.301Z" fill="#F4F4F4"/>
<path id="Vector_319" d="M65.9965 145.301H60.3985V150.935H65.9965V145.301Z" fill="#F4F4F4"/>
<path id="Vector_320" d="M71.6002 145.301H66.0021V150.935H71.6002V145.301Z" fill="#F4F4F4"/>
<path id="Vector_321" d="M82.7962 145.301H77.1982V150.935H82.7962V145.301Z" fill="#F4F4F4"/>
<path id="Vector_322" d="M105.2 145.301H99.6016V150.935H105.2V145.301Z" fill="#F4F4F4"/>
<path id="Vector_323" d="M110.798 145.301H105.2V150.935H110.798V145.301Z" fill="#F4F4F4"/>
<path id="Vector_324" d="M133.195 145.301H127.597V150.935H133.195V145.301Z" fill="#F4F4F4"/>
<path id="Vector_325" d="M149.995 145.301H144.397V150.935H149.995V145.301Z" fill="#F4F4F4"/>
</g>
</g>
<defs>
<clipPath id="clip0_1_3216">
<rect width="160" height="161" fill="white"/>
</clipPath>
</defs>
</svg>
