<svg width="171" height="175" viewBox="0 0 171 175" fill="none" xmlns="http://www.w3.org/2000/svg">
<path id="Vector" d="M168.053 91.502C169.74 89.4504 170.302 86.9296 170.921 84.4188C171.018 84.0634 170.794 83.7483 170.587 83.4734C170.168 81.7638 169.258 80.5369 167.628 79.9872C167.682 79.5044 167.525 79.253 167.046 79.1022C164.968 78.425 163.05 77.4495 161.729 75.4885C161.698 75.4382 161.638 75.4014 161.578 75.3544C159.657 73.5442 159.158 70.9798 158.436 68.5495C158.308 68.1405 158.496 67.7248 158.66 67.3427C158.556 66.1895 158.004 65.0766 158.228 63.9167C158.429 62.8004 158.088 61.9121 157.549 61.0372C157.974 59.4482 157.251 58.3554 156.16 57.4101C154.246 55.7508 152.285 54.1585 149.721 53.8031C149.527 53.7763 149.35 53.6456 149.179 53.5551C149.076 53.3942 148.968 53.3707 148.811 53.5081C148.671 53.5584 148.543 53.6422 148.43 53.7595C148.138 53.9171 147.713 53.6556 147.539 54.1082C147.516 54.1853 147.539 54.2523 147.539 54.3294C147.188 54.4367 146.817 54.5238 146.957 55.1071C147.084 55.3384 146.964 55.6033 147.048 55.848C146.967 56.8335 147.526 57.3531 148.272 57.7386C148.727 57.9733 149.29 58.0638 149.474 58.6772C149.316 58.761 149.152 58.8415 148.975 58.9186C148.788 58.9152 148.617 58.9219 148.43 58.9219C148.326 58.875 148.212 58.8851 148.125 58.9689C147.75 58.8549 147.379 58.7309 146.991 58.6068L146.984 58.5934C145.642 58.57 144.601 57.4905 143.263 57.4134C143.554 57.0045 143.383 56.4078 143.674 56.0089C143.758 55.8614 143.825 55.7172 143.898 55.563C143.989 55.3384 144.062 55.1105 144.062 54.8591C144.086 54.7786 144.093 54.7015 144.093 54.6211C144.273 54.1886 144.675 54.0244 144.973 53.7361C145.518 53.6891 145.846 53.3036 146.1 52.8276C146.372 52.6667 146.428 52.2779 146.72 52.1371C146.773 52.0198 146.817 51.8991 146.847 51.775C147.011 51.2119 146.793 50.8532 146.315 50.642C145.829 50.4275 145.428 50.1023 145.083 49.6732C144.688 48.8821 144.755 47.7926 143.791 47.3736C143.119 46.0897 142.239 45.0103 141.228 44.0281C141.101 43.2504 140.713 42.6705 140.144 42.1844C139.525 41.6682 138.986 41.0715 139.18 40.1127C139.113 39.7708 138.718 39.7172 138.641 39.4021L138.634 39.3954C138.477 39.1104 138.678 38.7685 138.554 38.4702C138.517 38.4266 138.517 38.3729 138.494 38.3361C138.537 38.3629 138.554 38.4098 138.614 38.4467C138.869 38.2556 138.949 38.0042 138.832 37.6824C138.333 35.6644 138.146 33.6061 138.139 31.5278C138.102 28.7655 137.57 28.1186 134.896 27.6291C134.709 28.1789 134.418 28.6348 133.903 28.903C133.926 28.9533 133.939 29.0103 133.963 29.0706C133.544 29.1611 133.133 29.0773 132.725 29.0069C132.574 29.0773 132.433 29.1544 132.289 29.2382C132.259 28.9097 132.095 28.5711 132.447 28.3163C132.49 28.2091 132.557 28.1052 132.634 28.0113C132.845 26.5866 131.858 25.9832 130.924 25.5541C130.154 25.1954 129.341 25.4066 129.258 26.6034C129.241 26.6872 129.221 26.771 129.197 26.8481C129.174 27.1096 129.241 27.3643 129.221 27.6191C129.207 27.7062 129.197 27.7901 129.177 27.8739C127.946 28.0214 126.698 28.6046 125.516 27.7062C124.606 26.5531 123.94 25.0681 122.207 25.0681C120.921 23.6836 118.987 23.7976 117.545 22.745C117.254 22.8824 116.946 22.6545 116.655 22.7953C116.544 22.745 116.437 22.7048 116.303 22.6612C116.176 22.6176 116.066 22.5673 115.932 22.5003C115.691 22.4064 115.447 22.3159 115.199 22.2187C114.951 22.1181 114.707 22.0176 114.473 21.9103H114.459C114.028 21.1426 113.422 20.8879 112.615 21.1695V21.1762C111.996 20.9214 111.391 20.67 110.755 20.4186C110.644 20.3649 110.524 20.3113 110.41 20.2677C110.082 20.1604 109.761 20.194 109.47 20.375C109.426 20.5225 109.379 20.6767 109.343 20.8275C109.239 20.8275 109.135 20.8074 109.038 20.8309C108.777 20.8912 108.529 21.032 108.268 21.1058C107.73 21.2633 107.184 21.3371 106.759 21.7695C106.706 21.8298 106.692 21.9203 106.632 21.9773C105.906 21.8332 105.16 21.85 104.48 21.4376C104.39 21.4577 104.293 21.4712 104.189 21.4846C103.911 21.6321 103.734 21.8701 103.57 22.1416C103.359 22.5003 103.068 22.859 102.951 23.2143C102.904 23.278 102.86 23.345 102.8 23.402C102.814 23.2445 102.824 23.0869 102.874 22.9327C102.904 22.755 102.941 22.5807 102.964 22.3964C102.947 21.9036 103.292 21.5751 103.456 21.156C103.627 20.7437 103.56 20.3381 103.433 19.9392C103.439 19.9493 103.439 19.9828 103.456 19.9995C103.54 20.0632 103.607 20.1269 103.687 20.194C103.864 20.2878 104.052 20.3683 104.239 20.4286C104.433 20.4688 104.641 20.499 104.828 20.5124C105.277 20.6499 105.708 20.6934 106.143 20.5392C106.07 20.965 106.09 21.3505 106.629 21.5013C106.816 21.4946 107.003 21.4477 107.181 21.3706C107.345 21.3002 107.519 21.2264 107.679 21.1426C108.151 20.8644 108.637 20.6096 108.777 19.9828C109.092 19.185 108.419 18.6754 108.255 18.0284C108.068 17.7938 107.867 17.5591 107.679 17.3278C107.472 16.5602 107.181 15.8227 106.756 15.159C106.568 14.6863 106.545 14.1768 106.441 13.6873L106.435 13.6773C106.337 13.5063 106.271 13.3354 106.197 13.151L106.19 13.1376C106.107 12.9633 106.033 12.7822 105.983 12.5945L106.003 12.5878C105.906 12.437 105.759 12.4102 105.615 12.4135C106.25 11.8302 105.802 11.0324 105.959 10.3519C105.959 10.2279 105.983 10.1105 106.003 9.98316C105.899 9.93958 105.802 9.87924 105.698 9.8122C105.849 7.92156 105.303 6.24546 104.296 4.7135C103.356 3.27876 100.515 2.729 99.2396 3.73131C99.0522 3.88551 98.8815 4.16039 98.8213 4.40845C98.5301 5.96052 97.9913 7.54611 99.1726 8.98756C99.1726 9.52726 99.263 10.0837 99.1793 10.6134C98.925 12.3967 98.9919 14.3712 96.9974 15.226L96.974 15.2662C96.7565 15.397 96.6761 15.5746 96.6761 15.7825C96.5724 15.8462 96.4586 15.8998 96.3549 15.9937C96.1909 16.2082 96.0336 16.4294 95.8998 16.6607C93.9722 16.8149 92.068 17.2273 90.1103 16.9624C90.0869 16.8887 90.0869 16.8015 90.03 16.7311C88.4906 16.2183 86.9211 15.6115 85.3081 15.8897C83.5378 16.1981 81.8278 16.1445 80.1244 15.5914C79.087 15.2696 79.2209 13.751 78.1968 13.4158C78.0529 13.3689 77.9358 13.3287 77.8086 13.2817C77.6447 12.1554 76.808 11.2838 76.6742 10.1843C76.3764 7.53941 75.1147 5.30684 73.9401 3.08433C72.4007 0.161216 68.9204 0.288599 67.3743 2.80945C66.7251 3.87881 66.2164 4.96827 66.0892 6.25216C65.9386 7.84446 65.7077 9.42335 65.5203 11.0056C65.4166 11.2637 65.3195 11.5252 65.2125 11.7799C65.1087 14.1902 64.2788 16.0741 62.0467 17.0731C61.1197 17.4921 60.1057 17.4653 59.2089 17.8843C58.7169 19.1313 57.5523 18.7827 56.6689 19.1079C56.3945 19.4531 56.1334 19.8018 55.8691 20.1537C55.1663 20.5795 55.6515 20.8175 55.9828 21.0789C56.0866 21.1192 56.1702 21.1594 56.2506 21.1896C56.6254 21.5248 57.1541 21.6723 57.5724 21.9606C57.8468 22.1483 58.2584 22.1617 58.5864 22.2991C58.9445 22.6176 59.0415 23.0433 58.8909 23.5663C58.9144 23.573 58.9211 23.5797 58.9378 23.5864C58.9211 23.6032 58.9211 23.6233 58.9144 23.6434C58.8775 23.8277 58.8775 24.0188 58.9144 24.2133C58.9378 24.4077 58.9746 24.5988 59.0181 24.7932C59.0415 24.9273 59.085 25.0312 59.1218 25.1586C59.0415 25.3832 58.9712 25.6111 58.8909 25.8324C57.5758 26.4391 56.1803 26.2816 54.7982 26.4089C54.7614 26.3251 54.7747 26.2648 54.7145 26.1542C53.4295 25.6614 52.3318 24.9306 51.3011 24.287C51.5855 24.3105 51.9135 24.2837 52.2917 24.0155C52.8003 23.6467 53.2621 23.2847 52.4724 22.7048C52.2113 22.5204 51.9938 22.2857 51.7562 22.0745C51.9369 21.2767 52.4356 20.5728 52.3686 19.718C52.3318 19.319 52.1812 18.7324 51.7127 18.9671C50.4745 19.6073 48.7544 19.1883 48.0282 20.908C47.9613 20.9516 47.9011 20.9918 47.8341 21.032C47.8341 21.032 47.8408 21.0253 47.8408 21.0153C47.9011 20.9817 47.9747 20.9449 48.0282 20.908C47.9379 20.7471 47.8341 20.5828 47.7371 20.4119C47.8944 19.8118 48.0885 19.2185 48.1855 18.605C48.2993 17.7971 47.8944 17.3312 47.1916 17.0362C46.4654 16.7345 45.3477 17.5256 44.9963 16.0708C44.8993 15.7288 44.2802 16.0473 43.9589 16.2618C43.2863 16.6909 42.637 17.1435 41.9711 17.5893L41.941 17.6094C41.7904 17.7033 41.6264 17.777 41.4557 17.834L41.4323 17.8508C41.2683 17.9513 41.1043 18.0419 40.9471 18.1391C40.8935 18.2631 40.8333 18.3905 40.753 18.5045C40.4685 19.2956 39.5281 19.6878 39.5817 20.6968C39.7022 21.0421 39.6352 21.3136 39.3039 21.4779C39.2604 21.6119 39.2002 21.746 39.1399 21.8801C38.8555 22.0042 38.8053 22.393 38.5208 22.5204C38.213 22.6344 38.146 23.0232 37.8716 23.154C37.5671 23.2646 37.4901 23.6568 37.2157 23.7942H37.2291C36.7137 25.1586 35.4755 25.3966 34.3745 25.8491C34.3377 25.9631 34.3009 26.067 34.2541 26.1709C33.5513 27.0492 32.5976 27.7599 32.5273 29.0706C32.37 29.4762 32.1826 29.8718 32.2361 30.3277C32.2428 30.4986 32.3165 30.6461 32.3867 30.7936C32.3399 30.7735 32.2897 30.6864 32.2228 30.75L32.1558 30.7869C32.1257 30.9042 32.0956 31.0182 32.0822 31.1355L31.9785 31.1188C31.1485 30.7098 30.2149 30.5087 29.5958 29.7008H29.5824C29.4117 29.7611 29.2377 29.8014 29.0603 29.8315H29.0235C28.3509 30.4416 27.9259 30.0729 27.3871 29.4963C26.8182 28.8762 26.266 28.0247 25.2654 28.2292C23.9302 28.4974 22.963 29.7511 23.0099 31.2261C23.0333 31.9166 23.1805 32.6038 23.2876 33.2944C23.7427 36.66 24.2213 40.039 22.4577 43.2068C22.2469 43.5756 22.3908 44.0248 22.5547 44.417C20.6707 45.788 19.7838 48.0675 18.2679 49.7805C17.5752 50.5716 17.1937 51.4935 15.9387 50.8666C15.6844 50.7392 15.1925 51.0107 14.8545 51.1918C14.2119 51.5102 13.5795 51.4935 12.9369 51.2923C12.8098 51.232 12.696 51.175 12.5789 51.108C11.1666 51.2957 9.9552 50.4073 8.54633 50.1928C8.37566 51.1817 8.35893 52.3449 6.99356 52.4019C6.86639 52.4053 6.65891 52.6768 6.64218 52.8377C6.49493 54.5138 5.80555 56.1865 6.68903 57.8593C7.15084 58.7107 7.52565 59.6024 7.92723 60.4774C8.00086 60.6483 8.12802 60.6684 8.27861 60.655C8.27192 60.7656 8.25519 60.8729 8.23511 60.9902C8.30204 61.1612 8.37566 61.3456 8.44594 61.5266C9.40303 62.7468 9.16878 64.4128 9.83473 65.747C9.9117 65.9314 10.0456 66.0923 10.0757 66.3001H10.0589C9.22902 68.1472 8.71366 70.011 9.56032 72.0391C9.87489 72.7967 9.83473 73.5275 9.00815 73.97C8.90441 74.218 8.84417 74.5465 8.65677 74.7007C7.44534 75.6896 7.23116 76.9266 7.79672 78.3647C8.03767 78.958 7.7164 79.2698 7.31148 79.5648C6.57859 80.6207 6.72249 82.0119 6.13016 83.1282C5.15299 84.4288 4.28625 85.8066 3.77089 87.3955C3.6203 87.8514 3.35258 88.371 3.56341 88.8101C4.27956 90.2717 3.7642 91.6428 3.44963 93.0473C3.0012 95.0285 3.29234 96.8688 4.15239 98.7092C5.13291 100.845 6.99022 101.699 8.75382 102.745C8.97803 102.96 9.18551 103.188 9.41977 103.399C9.51681 103.737 9.93513 103.741 10.0456 104.066C10.166 104.116 10.2698 104.17 10.3903 104.237C10.5609 104.73 11.1968 104.586 11.3908 105.055C11.5113 105.109 11.6151 105.155 11.7355 105.219C13.2281 106.181 15.0954 108.528 15.8818 110.502C16.0525 110.948 16.1295 111.448 16.5846 111.709C16.6515 111.89 16.7352 112.068 16.8088 112.249C16.6683 113.526 16.9795 114.874 16.3169 116.077L16.2801 116.097C15.8852 116.228 15.8015 116.489 15.9889 116.871C15.9287 116.989 15.8986 117.123 15.8718 117.26C15.7212 117.562 15.6309 117.934 15.3866 118.145C13.5861 119.788 12.0568 121.853 9.63394 122.607C9.27587 122.718 8.80401 122.761 8.80401 123.301C8.78059 123.807 9.22232 123.935 9.56701 124.136C9.67075 124.199 9.79792 124.246 9.91839 124.303L9.92509 124.32C9.9619 124.337 9.96859 124.38 9.99871 124.468C9.99871 124.491 9.9619 124.501 9.94517 124.518C9.94517 124.454 9.93847 124.39 9.92174 124.32C9.8615 124.437 9.83138 124.558 9.83138 124.685C9.77114 124.752 9.72765 124.826 9.6741 124.893C9.66741 124.883 9.6741 124.876 9.6741 124.866C8.54633 124.689 8.94122 122.647 7.51561 122.868L7.49888 122.862C7.3416 122.932 7.16423 123.009 6.99021 123.056C5.81894 124.112 4.33979 124.4 2.97108 124.98C2.95769 124.964 2.97108 124.95 2.95769 124.93C1.01673 125.641 0.313966 127.122 0.842712 129.415C0.933067 129.59 1.05354 129.751 1.18071 129.901C1.41162 130.062 1.69607 130.143 1.81319 130.438C3.55337 131.648 5.50437 131.061 7.36168 131.145C9.16209 131.226 10.7015 130.649 11.9631 129.244C12.5922 128.524 13.3151 127.836 14.2554 127.706C16.9092 127.34 19.476 127.531 21.6345 129.499C21.7549 129.543 21.8654 129.606 21.9791 129.67C23.3445 130.377 24.489 131.43 25.5867 132.499C26.855 133.723 27.5577 135.231 27.9861 137.132C28.5684 139.79 28.5249 142.549 29.5154 145.181C30.2249 147.091 31.182 147.873 32.959 148.265C34.2875 148.56 35.5525 147.762 36.8376 148.271C38.2565 148.372 39.749 148.131 41.0575 148.704C43.2327 149.646 45.5686 149.988 47.7438 150.913C48.1018 151.104 48.4666 151.299 48.8414 151.496C48.9251 151.59 49.0054 151.697 49.0656 151.821C49.1761 151.922 49.3032 152.023 49.4371 152.126C50.4745 153.601 52.2983 153.618 53.5901 154.651L53.6269 154.678C54.8517 155.174 55.8155 156.062 56.6053 157.158C57.0236 157.751 57.3984 158.388 58.0376 158.744C58.9478 160.155 59.8614 161.573 60.7784 162.981C60.7415 163.108 60.7047 163.229 60.6679 163.35C60.6679 163.35 60.6679 163.37 60.6813 163.387C60.6144 163.383 60.5608 163.35 60.4939 163.363C60.3065 163.604 60.2028 163.866 60.3065 164.181C60.4705 164.479 60.2831 164.815 60.3902 165.126V165.106C60.5608 165.405 60.3667 165.75 60.4805 166.065C60.6579 166.534 60.6813 167.047 60.8018 167.533L60.785 167.52C61.0093 168.867 61.8225 169.9 62.4583 171.016C64.3022 174.214 66.1093 174.804 69.3755 173.265C71.5139 172.669 73.7427 172.256 75.6569 170.999C76.9118 170.188 78.2035 169.605 79.6325 169.36C79.7597 169.229 79.773 169.072 79.753 168.918H79.7898C79.9404 168.851 80.0876 168.787 80.2683 168.73C80.3787 168.743 80.4992 168.75 80.6197 168.777C80.7469 168.837 80.874 168.894 81.0012 168.955C81.0614 168.847 81.1049 168.743 81.1417 168.629C83.4341 168.331 85.1776 169.511 86.7973 170.973C87.9184 171.982 89.0395 172.384 90.5688 171.881C92.3023 171.321 93.7145 170.222 95.2807 169.38C97.7102 168.08 100.143 166.94 102.944 167.966C103.071 167.939 103.212 167.882 103.332 167.899C106.364 168.425 109.159 167.899 111.729 165.998C113.335 164.815 115.186 164.352 117.15 164.801C118.077 165.012 119.121 164.365 119.958 165.281C120.071 165.408 120.466 165.327 120.691 165.24C123.157 164.325 125.717 163.816 128.294 163.48C129.629 164.034 130.84 164.741 131.707 165.995C131.731 166.062 131.751 166.139 131.781 166.209C132.156 166.655 132.176 167.225 132.259 167.771C132.447 168.063 132.611 168.351 132.798 168.633C134.023 170.486 134.98 171.006 136.265 170.503C137.436 170.027 137.794 169.062 137.63 166.839C137.691 166.836 137.704 166.88 137.758 166.863C138.042 166.511 138.189 166.125 138.062 165.656C137.831 163.393 137.972 161.114 137.831 158.868C137.63 155.412 137.62 152.116 139.722 149.223C140.94 147.993 142.413 146.991 142.928 145.144L142.891 145.097C142.915 145.114 142.915 145.124 142.928 145.144C144.772 144.249 146.034 142.643 147.332 141.068C147.603 140.303 148.497 140.159 148.781 139.408C149.551 139.318 150.066 138.728 150.625 138.292C151.334 137.756 152.081 137.353 152.85 136.975C153.881 136.468 154.838 136.438 155.765 137.27C156.839 138.228 158.081 138.818 159.409 139.267C160.052 139.928 160.925 140.276 161.702 140.327C162.994 140.414 164.667 141.118 165.346 139.026C165.333 138.745 165.266 138.57 165.182 138.423C165.273 138.168 165.353 137.927 165.45 137.679C165.614 136.837 165.778 135.992 165.935 135.154C165.637 134.873 165.309 134.594 164.981 134.313C164.958 134.303 164.921 134.289 164.914 134.276C165.289 133.284 164.064 133.227 163.931 132.536C162.766 131.691 161.568 132.174 160.008 132.744C161.009 131.202 160.577 130.26 159.59 129.482C159.179 129.161 159.038 128.738 159.135 128.195C159.262 127.495 159.158 126.801 158.978 126.127C158.329 123.733 159.269 121.494 159.507 119.181C159.537 118.926 159.701 118.655 159.881 118.457C161.022 117.146 161.896 115.514 163.579 114.813C163.72 114.726 163.877 114.656 164.034 114.595C164.155 114.635 164.282 114.666 164.423 114.709C164.586 114.642 164.774 114.572 164.921 114.471C165.102 114.404 165.272 114.32 165.436 114.237C165.624 114.133 165.751 113.978 165.835 113.764C165.865 113.63 165.768 113.523 165.721 113.405C165.751 113.278 165.811 113.167 165.848 113.047C166.34 112.876 166.527 112.406 166.758 111.994C167.752 110.197 169.342 108.481 167.438 106.289C167.377 106.215 167.401 106.024 167.401 105.886C167.485 103.634 166.491 101.756 165.534 99.8657C164.998 98.7762 165.728 97.8242 165.915 96.8554C166.29 94.9514 166.819 93.0105 168.06 91.5053L168.053 91.502ZM10.4572 66.4275H10.4438C10.4438 66.4275 10.4438 66.4208 10.4572 66.4275ZM13.1544 55.4189C13.1544 55.4189 13.131 55.4055 13.131 55.3954C13.1444 55.3954 13.1544 55.4021 13.1678 55.4021C13.1544 55.4021 13.1544 55.4122 13.1544 55.4189ZM13.5192 61.4629V61.4461C13.5627 61.426 13.5861 61.4361 13.623 61.426C13.623 61.426 13.6464 61.4327 13.6531 61.4428C13.5995 61.4495 13.5627 61.4428 13.5192 61.4629ZM13.8706 55.2647C13.7869 55.2278 13.7066 55.1943 13.623 55.1574V55.144C13.6665 54.9999 13.7133 54.8557 13.7501 54.7082C13.7568 54.7082 13.7568 54.6948 13.7736 54.6881C13.8539 54.8993 13.9442 55.0971 14.0647 55.2848C13.9978 55.2647 13.9375 55.2814 13.8706 55.2647ZM14.5633 78.4619C14.5633 78.4619 14.5566 78.4418 14.5566 78.4317C14.5633 78.415 14.5633 78.4049 14.5934 78.3949C14.5801 78.4183 14.5633 78.4384 14.5633 78.4619ZM9.73768 125.108C9.71426 125.128 9.68414 125.125 9.64733 125.145C9.64733 125.114 9.65402 125.084 9.65402 125.057L9.75107 125.114H9.73768V125.108ZM17.2439 54.0009C17.0665 53.9305 17.1635 53.8936 17.2137 53.8501C17.2506 53.907 17.274 53.954 17.3476 53.9707C17.3108 53.9808 17.2639 54.011 17.2439 54.0009ZM27.4172 98.0119C27.4607 97.9918 27.5444 98.0052 27.5812 97.9784C27.5812 98.0354 27.5812 98.0689 27.6046 98.1326C27.5444 98.0689 27.4841 98.0656 27.4172 98.0086V98.0119ZM28.7759 79.5916L28.7625 79.5715C28.7993 79.5748 28.8294 79.6117 28.8662 79.6318C28.8227 79.6385 28.7993 79.5983 28.7759 79.5916ZM29.8367 85.7261C29.8367 85.7261 29.82 85.6993 29.8133 85.6825C29.8367 85.6825 29.8568 85.6892 29.8802 85.6892C29.8568 85.6892 29.8434 85.7161 29.8334 85.7261H29.8367ZM30.6432 126.874C30.6198 126.868 30.6064 126.858 30.583 126.851V126.844C30.5997 126.864 30.6298 126.854 30.6499 126.868L30.6432 126.874ZM31.868 79.7458C31.8814 79.7156 31.8881 79.6989 31.9048 79.6687C31.9517 79.6788 31.9718 79.6955 32.0153 79.7156C31.9852 79.7223 31.9249 79.7357 31.868 79.7458ZM38.7852 146.468C38.7785 146.448 38.7484 146.428 38.7417 146.408C38.7651 146.421 38.7785 146.424 38.802 146.434C38.802 146.441 38.7852 146.455 38.7852 146.468ZM40.4417 76.3064C40.4785 76.2897 40.502 76.283 40.5254 76.2595C40.5388 76.293 40.5488 76.3131 40.5689 76.3433C40.5154 76.3366 40.4953 76.3098 40.4417 76.3064ZM46.529 81.194L46.5457 81.1805C46.5524 81.1973 46.5524 81.2074 46.5658 81.2241C46.5524 81.2074 46.529 81.204 46.529 81.194ZM47.8274 21.3337V21.3102C47.8274 21.3102 47.8274 21.3069 47.8341 21.3102C47.8341 21.317 47.8341 21.3203 47.8274 21.3337ZM49.6044 100.982L49.6111 100.965C49.6345 100.952 49.658 100.965 49.6714 100.952C49.6479 100.959 49.6278 100.975 49.6044 100.979V100.982ZM56.8128 118.625L56.7994 118.611C56.7994 118.611 56.7994 118.601 56.8128 118.591C56.7994 118.598 56.8128 118.611 56.8128 118.625ZM59.4632 25.6547C59.4632 25.6547 59.4632 25.6379 59.4699 25.6312L59.4833 25.6379C59.4598 25.6379 59.4598 25.6446 59.4598 25.6547H59.4632ZM63.064 119.396C63.0506 119.355 63.0272 119.308 63.0038 119.268C63.0506 119.255 63.0707 119.262 63.1075 119.251C63.0841 119.298 63.0941 119.342 63.064 119.396ZM64.513 123.107C64.5365 123.08 64.5565 123.06 64.58 123.036C64.58 123.053 64.6034 123.076 64.6168 123.086C64.58 123.093 64.5565 123.103 64.513 123.107ZM66.9627 85.4915C66.9024 85.4177 66.8422 85.3339 66.7385 85.3138C66.7385 85.3138 66.7318 85.3037 66.7385 85.3037C66.8355 85.3473 66.9526 85.3943 67.0597 85.4378C67.0363 85.4647 66.9861 85.4714 66.9627 85.4948V85.4915ZM68.077 16.6574C68.0536 16.6339 68.0235 16.6205 68.0001 16.6004C68.0536 16.5937 68.077 16.5602 68.144 16.5568C68.1206 16.5903 68.1005 16.6239 68.077 16.6574ZM72.6919 14.4483C72.7153 14.4215 72.7454 14.4181 72.7822 14.4047C72.7822 14.4047 72.7956 14.4081 72.8056 14.4114C72.7621 14.4181 72.722 14.4282 72.6919 14.4449V14.4483ZM74.5826 17.4519C74.6061 17.4418 74.596 17.4217 74.6194 17.4083C74.596 17.5122 74.6797 17.6027 74.6629 17.6999C74.6629 17.6128 74.6027 17.5323 74.5826 17.4519ZM77.1962 18.4106C76.286 18.2832 76.0082 19.5537 75.1181 19.4431C75.0746 19.2386 75.021 19.0442 74.9742 18.843C74.8938 18.6721 74.8102 18.5045 74.7299 18.3301V18.3134C74.8269 18.0787 74.9072 17.8374 74.9976 17.596L74.9909 17.5759V17.5692C75.2084 17.6161 75.3724 17.5357 75.5063 17.3412V17.3681C76.2291 17.5759 76.7913 17.2373 77.3134 16.7814C77.3368 16.8015 77.3301 16.8384 77.3569 16.8619C77.5577 16.9624 77.7618 16.882 77.9325 16.8183C77.9693 17.1401 78.0529 17.4385 78.2604 17.6865C77.909 17.9245 77.5443 18.1592 77.1929 18.4072L77.1962 18.4106ZM82.0219 161.697C82.0219 161.664 82.0152 161.633 82.0152 161.596C82.0152 161.63 82.052 161.657 82.052 161.69C82.052 161.69 82.042 161.691 82.0219 161.694V161.697ZM83.6349 30.0763C83.6349 30.0763 83.6115 30.0695 83.6048 30.0662C83.6115 30.0595 83.6282 30.0628 83.6349 30.0528V30.0763ZM85.1642 95.0721L85.1776 95.0654C85.1642 95.0687 85.1776 95.0721 85.1776 95.0721C85.1776 95.0721 85.1776 95.0788 85.1642 95.0721ZM85.5089 22.4567C85.4587 22.4601 85.4119 22.5003 85.3684 22.5036C85.1441 21.9706 84.9132 21.4443 85.1375 20.8141C85.0772 20.7337 85.0036 20.6901 84.8965 20.67L84.8898 20.6298C84.8898 20.6298 84.853 20.613 84.853 20.6063C85.0237 20.3314 84.9936 20.08 84.756 19.8487C84.9132 19.785 85.0538 19.7079 85.1609 19.5839C85.6762 18.6419 86.4225 18.4944 87.3428 18.7592C87.9418 18.9335 88.4404 19.4196 89.1064 19.3224C89.0763 19.376 89.0395 19.4297 88.9959 19.4799C88.7249 20.0062 88.5174 20.5761 88.0255 20.918C87.7711 21.1929 87.557 21.4946 87.5335 21.8935C87.5335 22.0008 87.5837 22.088 87.6306 22.1885C86.8676 21.6924 86.2485 22.6143 85.5156 22.4534L85.5089 22.4567ZM89.8192 61.6205C89.8192 61.5735 89.856 61.6037 89.8627 61.5836C89.9229 61.5568 89.9899 61.5266 90.0501 61.4964H90.0434C90.0434 61.4964 90.0501 61.4931 90.0735 61.4897C90.0668 61.4897 90.0501 61.4931 90.0501 61.4964C90.0735 61.5165 90.1103 61.5165 90.1338 61.5299C90.03 61.5668 89.9229 61.5534 89.8192 61.6171V61.6205ZM94.434 106.939L94.4407 106.932V106.912C94.4407 106.912 94.4541 106.932 94.4541 106.946C94.4407 106.946 94.4407 106.939 94.4307 106.939H94.434ZM95.5986 106.067C95.6153 106.047 95.6153 106.024 95.622 106.004C95.622 106.004 95.6265 106.011 95.6354 106.027C95.6354 106.027 95.612 106.054 95.5986 106.067ZM96.0537 164.761C96.0537 164.761 96.047 164.778 96.047 164.788C96.047 164.788 96.0336 164.781 96.0336 164.764C96.047 164.768 96.047 164.758 96.057 164.761C96.057 164.751 96.0704 164.754 96.0805 164.741C96.0939 164.774 96.0805 164.808 96.0939 164.841C96.0805 164.815 96.0704 164.788 96.057 164.761H96.0537ZM98.6774 23.3786C98.6472 23.4992 98.5569 23.5897 98.4966 23.6836C97.1313 23.6903 96.047 24.6692 94.7921 25.0479C94.4173 25.2591 94.0458 25.4435 93.6108 25.4603C93.4468 25.5005 93.2828 25.5508 93.1322 25.6312C92.5934 25.9363 92.048 26.0737 91.459 25.9396C91.2883 25.9396 91.1243 25.9665 90.9603 26.0167C90.3111 26.248 89.6318 26.0771 88.9725 26.1877C88.5609 26.2212 88.1593 26.2816 87.7477 26.1609C87.6272 26.1408 87.5001 26.1408 87.3963 26.1441C87.4398 26.1374 87.5168 26.1307 87.5737 26.124C88.4237 25.8458 89.6117 26.4626 90.0468 25.0513C90.0468 25.0379 90.0836 25.0446 90.0836 25.0278C90.1438 25.1921 90.1438 25.3698 90.2777 25.4804C90.4416 25.5675 90.6056 25.6245 90.7863 25.6413C90.9603 25.648 91.1243 25.6346 91.3084 25.5944C91.3753 25.5608 91.459 25.5407 91.5393 25.5139C91.7033 25.4569 91.8605 25.4033 92.0111 25.3228C92.1517 25.2424 92.3023 25.1686 92.4495 25.0815C92.8812 24.8133 93.3966 24.6926 93.7714 24.2904C94.7419 22.4098 93.1958 22.1416 92.1818 21.5281C91.9944 21.4712 91.8003 21.4477 91.6163 21.3304C91.8104 21.0957 91.9977 20.8543 92.2588 20.6968C92.8411 20.499 93.4602 20.3917 93.835 19.7749C93.8785 19.6576 93.8584 19.5336 93.8718 19.4095C94.2901 19.9761 94.9326 20.1269 95.5149 20.2476C97.2317 20.6029 98.3762 21.4644 98.7275 23.2344C98.7041 23.278 98.7041 23.335 98.6774 23.3752V23.3786ZM99.4671 147.517C99.5709 147.454 99.6545 147.353 99.7583 147.283C99.7583 147.316 99.7717 147.343 99.7717 147.373H99.7783C99.6746 147.43 99.5709 147.474 99.4638 147.517H99.4671ZM102.924 94.3681C102.968 94.2441 103.045 94.177 103.065 94.0295C103.108 94.1502 103.155 94.1971 103.198 94.3044C103.125 94.2943 103.011 94.348 102.921 94.3681H102.924ZM104.35 26.8414C104.229 26.714 104.102 26.5933 103.985 26.4961C103.791 26.3453 103.65 26.1274 103.5 25.943C103.396 25.819 103.275 25.6916 103.148 25.5843C103.045 25.4569 102.947 25.3128 102.844 25.172C102.7 24.4948 103.008 24.5183 103.396 24.6591C103.419 24.8435 103.439 25.0178 103.449 25.1988C103.486 25.4301 103.583 25.648 103.694 25.8491C103.941 26.2715 104.226 26.657 104.544 26.9956C104.494 26.9419 104.41 26.9118 104.35 26.838V26.8414ZM105.866 120.757H105.879C105.879 120.757 105.902 120.757 105.909 120.763C105.902 120.76 105.886 120.76 105.866 120.757ZM106.358 102.393C106.358 102.393 106.341 102.38 106.341 102.373L106.358 102.38V102.393ZM108.68 29.7243C109.068 29.788 109.473 29.7578 109.935 29.5701C109.942 29.5768 109.958 29.5768 109.965 29.5868C109.905 29.6706 109.825 29.741 109.818 29.8818C109.898 30.1534 110.025 30.3277 110.152 30.4953C109.667 30.2372 109.175 29.979 108.68 29.7276V29.7243ZM110.899 114.106C110.899 114.106 110.875 114.106 110.869 114.106C110.875 114.106 110.892 114.099 110.899 114.103V114.106ZM110.892 114.096C110.892 114.096 110.892 114.089 110.879 114.082C110.892 114.082 110.892 114.086 110.902 114.096C110.902 114.096 110.902 114.099 110.895 114.096H110.892ZM111.371 63.4206H111.357L111.371 63.4139V63.4206ZM115.058 76.6383C115.052 76.6182 115.052 76.6048 115.052 76.5914C115.052 76.6048 115.058 76.6115 115.075 76.6283C115.075 76.6283 115.075 76.6316 115.058 76.6383ZM116.464 32.6306C116.742 32.6642 117.023 32.7345 117.307 32.7547C117.538 32.6843 117.726 32.5267 117.896 32.3725C118.097 32.4563 118.308 32.5435 118.509 32.6172C118.719 32.7882 118.944 32.9323 119.211 33.0329C118.284 32.9457 117.357 32.8251 116.464 32.6273V32.6306ZM122.484 112.54C122.484 112.54 122.484 112.52 122.471 112.504C122.484 112.504 122.494 112.52 122.494 112.514C122.488 112.52 122.488 112.53 122.488 112.537L122.484 112.54ZM125.988 32.8418C125.988 32.8418 125.988 32.872 125.971 32.8854C125.951 32.8653 125.928 32.8519 125.891 32.8385C125.704 32.7748 125.516 32.748 125.322 32.7647C125.225 32.7714 125.135 32.7815 125.038 32.7848C124.844 32.8183 124.643 32.8653 124.462 32.9256C124.311 32.9457 124.188 32.9323 124.044 32.9558C124.348 32.8083 124.626 32.587 124.783 32.0775V32.0708C125.105 32.6843 125.724 32.3826 126.232 32.4898C126.135 32.6005 126.022 32.6977 125.985 32.8485L125.988 32.8418ZM128.782 115.135C128.769 115.108 128.746 115.105 128.732 115.081C128.746 115.085 128.769 115.098 128.782 115.101V115.135ZM128.789 113.764C128.766 113.74 128.766 113.717 128.746 113.697C128.769 113.717 128.769 113.74 128.789 113.754V113.764ZM129.723 115.899H129.716C129.723 115.876 129.739 115.852 129.739 115.832C129.739 115.852 129.723 115.876 129.723 115.899ZM135.894 153.987C135.887 153.943 135.894 153.917 135.894 153.876C135.907 153.88 135.917 153.883 135.93 153.89C135.914 153.923 135.907 153.953 135.894 153.99V153.987ZM139.622 56.4447C139.622 56.4681 139.645 56.4681 139.658 56.4916C139.622 56.4748 139.612 56.4681 139.592 56.4547C139.598 56.448 139.615 56.4514 139.622 56.4413V56.4447ZM139.615 120.485C139.511 120.425 139.377 120.415 139.274 120.338C139.438 120.197 139.595 120.207 139.759 120.126C139.705 120.24 139.638 120.385 139.615 120.485ZM145.726 62.8742C145.726 62.8742 145.732 62.844 145.732 62.8239C145.746 62.834 145.746 62.8641 145.762 62.8742C145.749 62.8742 145.732 62.8809 145.726 62.8742ZM147.968 65.2744C147.968 65.2744 147.961 65.2542 147.931 65.2643H147.924C147.948 65.2308 147.991 65.2408 148.008 65.204C148.015 65.2308 147.985 65.2509 147.971 65.2744H147.968ZM156.511 122.805H156.495C156.495 122.805 156.511 122.788 156.518 122.788C156.518 122.791 156.511 122.801 156.511 122.805ZM158.851 75.7936C158.583 75.76 158.312 75.8103 158.051 75.9377C157.736 76.1254 157.452 76.34 157.197 76.5981C157.057 76.4942 156.93 76.4037 156.766 76.3366C156.742 76.3266 156.719 76.3199 156.699 76.3098C156.639 76.0886 156.675 75.8573 156.675 75.6293C156.779 75.5824 156.883 75.5555 156.967 75.4717C157.13 75.3041 157.174 75.1131 157.181 74.9153H157.194C157.522 75.0862 157.853 75.1298 158.188 75.0259C158.195 75.0427 158.195 75.0695 158.225 75.0862C158.359 75.1432 158.496 75.1097 158.63 75.0896C158.81 75.3913 159.078 75.6461 159.078 76.0114C159.005 75.9276 158.958 75.8271 158.847 75.7969L158.851 75.7936ZM166.417 107.894L166.41 107.904L166.397 107.888C166.397 107.888 166.41 107.888 166.42 107.891L166.417 107.894Z" fill="#111111"/>
</svg>
