<svg width="210" height="193" viewBox="0 0 210 193" fill="none" xmlns="http://www.w3.org/2000/svg">
<path id="Vector" d="M34.8647 154.209C36.4013 155.389 38.5896 155.66 39.6514 157.417C40.6743 157.254 41.3304 156.625 41.8224 155.764C43.5403 156.909 45.1157 157.99 46.3243 159.377C47.2566 160.449 47.9299 161.538 49.7125 160.991C50.2951 160.815 50.8908 161.271 51.4001 161.603C52.1986 162.107 53.0187 162.602 53.8172 163.093C54.1668 163.351 54.5725 163.692 54.9825 163.558C56.6184 163.011 58.2369 163.562 59.8512 163.506C61.4698 163.429 62.838 164.428 64.435 164.139L64.435 164.101L64.4566 164.114L64.435 164.139C64.6594 164.23 64.8968 164.32 65.1299 164.424L65.1299 164.385L65.1385 164.385C65.1385 164.385 65.1299 164.406 65.1299 164.424C65.4968 164.678 65.8852 164.652 66.2953 164.54L66.3168 164.518L66.3168 164.514C66.3168 164.514 66.3168 164.536 66.2953 164.54C66.8262 164.884 67.3398 165.229 67.8491 165.556C69.4461 165.504 70.7755 166.387 72.2689 166.663C72.7998 167.068 73.4731 167.016 74.0903 167.128C75.5837 167.903 76.8527 168.962 78.0828 170.035C78.1432 170.181 78.2037 170.297 78.3072 170.409C78.4713 170.353 78.6353 170.289 78.7993 170.211C79.4338 170.392 79.6496 170.874 79.8611 171.382C82.4594 174.272 82.8306 178.079 84.5657 181.321C84.5873 181.36 84.5053 181.463 84.4665 181.532C84.16 182.445 84.8549 182.579 85.5196 182.764C86.4303 182.798 87.1684 183.031 87.8719 183.685C88.4028 184.163 89.6027 184.788 89.9092 184.585C91.476 183.505 92.6715 184.685 94.0311 184.809C94.9634 184.896 96.1072 185.313 97.0093 184.547C96.9489 184.392 96.8885 184.25 96.8367 184.095C96.8582 184.086 96.8885 184.082 96.9101 184.069C96.8885 184.232 96.8798 184.409 97.0093 184.547C97.8078 184.344 98.6063 184.405 99.353 184.633C102.698 185.645 105.87 186.967 108.162 189.645C109.246 189.947 109.759 191.415 111.028 191.17C112.582 190.877 113.709 191.527 114.956 192.143C117.188 193.254 118.733 192.866 120.092 190.795C120.93 189.499 121.974 188.956 123.519 189.142C124.245 189.228 124.939 189.232 125.267 188.448C125.634 188.086 125.841 187.664 125.902 187.174L125.777 187.1L125.798 187.087C125.829 187.1 125.859 187.135 125.902 187.174C126.67 186.915 127.253 186.416 127.771 185.852C128.375 185.188 129.113 184.766 130.076 184.896C131.077 185.02 131.949 184.896 132.756 184.237C133.33 183.776 134.085 183.892 134.785 183.97C134.806 184.013 134.875 184.052 135.009 184.056C135.13 184.056 135.203 183.965 135.264 183.815C135.272 183.987 135.272 184.151 135.48 184.237C135.644 184.194 135.808 184.142 135.972 184.099C136.338 184.288 136.77 184.013 137.15 184.211C137.374 184.306 137.599 184.405 137.836 184.478C138.052 184.594 138.285 184.676 138.514 184.771L138.535 184.771C140.46 184.452 142.506 184.392 144.185 185.193C145.29 185.735 146.305 186.045 147.479 186.183C148.256 186.256 149.015 186.541 149.77 186.752C152.533 187.488 155.213 187.828 157.298 185.326C157.76 184.771 158.485 184.702 159.201 184.585C161.247 184.263 161.247 184.232 160.755 182.26C160.837 181.653 161.092 181.115 161.718 180.869C162.926 180.391 163.19 179.302 163.651 178.337C164.113 177.355 163.509 176.976 162.598 176.783C161.718 175.163 162.987 174.005 163.746 172.855C164.195 172.153 164.545 171.675 164.074 170.935C163.85 168.902 163.91 168.687 165.814 168.459C167.04 168.321 167.739 167.808 168.231 166.857C168.477 166.508 168.455 166.129 168.365 165.741C168.896 164.992 169.754 164.703 170.583 164.363C171.3 163.532 172.344 163.192 173.376 162.843L173.384 162.852C173.609 162.275 174.459 162.425 174.692 161.861L174.692 161.866C176.147 160.716 178.262 160.836 179.634 159.377C180.964 157.938 182.776 157.043 184.74 156.41C186.644 155.79 188.495 155.019 189.212 152.934C189.505 152.09 190.243 151.935 191.279 151.828C194.275 151.552 196.424 154.554 199.515 153.537C199.67 153.486 199.523 153.537 199.476 153.744C199.148 155.324 201.012 155.557 201.522 156.621L201.53 156.621C202.441 156.298 203.33 155.996 204.219 155.652C205.285 155.26 205.95 154.713 204.815 153.723C204.219 153.193 204.366 152.728 204.858 152.245C204.267 151.152 203.753 151.785 203.218 152.293L203.179 152.293C202.812 151.186 201.91 150.265 201.871 149.042C201.841 148.878 201.768 148.727 201.686 148.598C201.837 148.43 201.91 148.275 201.625 148.15C201.586 147.961 201.522 147.784 201.491 147.608C201.327 147.565 201.215 147.478 201.155 147.323C201.155 147.112 201.051 147.018 200.827 147.048C200.559 147.112 200.296 147.207 200.02 147.117L199.886 147.078C199.579 147.19 199.26 147.285 198.954 147.392C198.802 147.13 198.634 146.845 198.474 146.587C198.289 145.894 198.198 145.088 197.08 145.588C196.765 145.472 196.446 145.36 196.131 145.248C195.647 144.516 194.564 144.223 194.473 143.215C194.542 141.669 193.213 140.817 192.436 139.697C192.315 139.581 192.13 139.564 191.987 139.469C192.419 137.751 193.77 137.329 195.505 137.423L195.548 137.458C195.505 138.336 195.475 139.236 195.427 140.119C195.367 140.334 195.285 140.55 195.224 140.769C195.267 140.933 195.306 141.092 195.375 141.252C196.429 141.42 196.07 142.996 197.287 143.03C198.72 140.967 198.699 140.924 197.093 138.81C196.856 138.504 196.899 138.022 196.817 137.621C197.106 137.514 197.391 137.402 197.676 137.303C197.922 137.389 198.168 137.462 198.414 137.531C198.742 137.402 199.048 137.264 199.364 137.118C199.536 136.76 200.028 136.704 200.184 136.334C200.369 134.211 201.604 132.695 203.365 131.494C203.46 130.111 203.425 128.751 202.402 127.601C202.394 127.596 202.381 127.609 202.359 127.618C202.359 127.605 202.381 127.592 202.381 127.592L202.329 127.549C202.441 127.381 202.501 127.196 202.545 127.006C202.463 126.808 202.402 126.623 202.342 126.434C202.342 126.434 202.342 126.425 202.32 126.421L202.342 126.421C202.67 125.616 202.911 124.759 203.878 124.354C204.094 123.996 203.827 123.6 204.012 123.243L204.003 123.243C203.952 121.357 203.145 119.535 203.442 117.602L203.451 117.576C203.145 117.132 202.838 116.749 202.212 117.145C201.876 117.218 201.535 117.283 201.198 117.343C200.136 117.546 199.683 117.205 200.033 116.168L200.227 116.081C200.33 115.961 200.382 115.853 200.399 115.698L200.356 115.496C200.499 114.716 199.946 114.204 199.558 113.618C199.618 113.261 199.683 112.921 199.743 112.563C200.827 112.047 200.969 113.511 201.953 113.614C202.096 113.205 202.178 112.886 202.312 112.58C203.343 109.984 203.723 107.12 205.851 104.967C206.658 104.132 206.248 103.266 205.859 102.405C205.695 101.358 205.441 100.385 204.172 100.036C204.323 99.7995 204.388 99.554 204.142 99.2569C204.081 99.1363 203.999 99.0072 203.917 98.8737C204.288 98.6627 204.595 98.4258 204.677 98.0081L204.72 97.9952C206.041 97.7368 206.192 96.643 206.572 95.7086C206.744 95.644 206.908 95.5923 207.094 95.5363C207.767 94.4081 208.445 93.2755 209.118 92.1387C208.954 90.3473 208.751 88.5386 208.415 86.7946C207.996 84.6285 207.34 82.5142 207.34 80.2835C207.34 79.9864 207.137 79.6677 206.973 79.3878C205.907 77.4888 206.114 76.972 208.294 75.9299C208.16 75.6155 208.039 75.3012 207.914 74.9868C207.176 73.8155 206.606 72.5495 205.497 71.6193C205.398 71.4471 205.294 71.2878 205.19 71.1198C204.988 71.0423 204.923 70.9045 205.005 70.7107C204.91 70.5729 204.841 70.4222 204.798 70.2715C204.573 69.5997 204.543 68.8289 203.641 68.5533C202.35 67.9332 202.536 66.482 201.75 65.5604C201.504 64.4451 200.399 63.3642 200.848 62.2963C201.647 60.4618 200.805 58.7953 200.9 56.9264C199.946 57.3484 200.132 58.1795 199.705 58.6618C199.092 59.3336 198.66 59.1183 198.436 58.3948C198.354 58.1106 198.496 57.7661 198.539 57.4517C198.375 56.6981 198.725 56.0307 198.897 55.3287L198.906 55.3287C199.683 54.8508 200.46 54.3728 201.237 53.8948C201.319 52.9948 201.28 52.1809 200.848 51.2938C200.132 49.8426 199.765 48.2363 199.251 46.7033C197.646 44.0506 197.633 44.055 194.676 44.4296C194.357 44.477 194.011 44.3435 193.662 44.2832C194.011 43.999 194.357 43.7148 194.706 43.4305C194.87 42.8363 195.056 42.2334 195.22 41.6305C193.584 40.4765 191.538 40.1449 189.756 39.275C189.695 39.3224 189.704 39.4042 189.652 39.4516C189.661 39.4473 189.652 39.4343 189.652 39.4343L189.756 39.275C188.323 38.1898 186.583 37.4535 185.388 36.0884C184.231 35.4855 183.186 34.8352 182.185 33.9697C180.946 32.8931 180.161 31.3127 178.857 30.5677C176.842 29.4137 175.944 27.7773 175.085 25.973C173.384 26.2227 172.241 25.5639 171.628 24.0739C171.403 23.5313 171.239 22.9112 170.635 22.6614C168.598 21.7787 167.618 19.6212 165.343 18.9882C164.73 18.8203 164.208 18.2346 163.889 17.6059L163.897 17.6059C163.703 17.4466 163.479 17.3561 163.224 17.2872C161.618 17.2011 160.431 16.2537 159.119 15.5389C158.364 15.2073 157.993 14.4925 157.38 14.0317C156.81 13.7001 156.357 13.0154 155.507 13.4934C155.498 13.5063 155.498 13.5408 155.477 13.5709C154.311 11.5728 152.921 9.78142 150.401 9.11395C149.512 8.88141 149.378 8.05891 148.981 7.44742C148.735 6.10387 147.949 5.28138 146.451 5.11343C145.674 5.023 144.98 4.73879 144.367 4.24357C143.957 3.58902 143.59 2.71054 142.748 2.65025C142.204 2.62011 142.122 3.47275 142.032 4.01533C140.948 4.56223 140.189 4.01964 139.476 3.32633C138.842 3.5761 138.207 3.82155 137.564 4.0627C136.662 4.22634 135.795 4.4718 134.996 4.92826C134.996 4.97132 134.953 4.97994 134.923 5.01869C134.88 4.92396 134.914 4.85075 134.854 4.73879C133.606 4.52347 132.601 5.54406 131.353 5.34166C129.553 6.20291 127.262 5.712 125.686 6.73258C123.342 8.24839 121.059 8.1881 118.564 7.58092L118.422 7.58092C117.861 7.77901 117.235 8.15796 116.674 7.93403C114.33 7.00819 111.775 6.90483 109.38 6.23306C109.043 6.14693 108.581 6.11248 108.417 5.89286C107.537 4.62682 106.229 4.78615 104.93 4.8895C104.511 4.42443 103.937 4.17036 103.341 4.09715C101.99 3.9249 100.721 3.45982 99.2883 3.42537C97.3115 3.38662 96.1979 1.56076 94.6829 0.54018C92.8701 -0.712942 92.3306 1.21196 91.2472 1.75455C91.545 2.45216 91.7177 3.16269 91.6659 3.92059C91.6227 3.93351 91.6141 3.9895 91.5709 3.99811C91.4803 4.21342 91.4501 4.44596 91.4889 4.67419C91.4889 4.70003 91.5105 4.70864 91.5105 4.73017C90.9364 4.86797 90.2717 4.86367 89.8746 5.42779C88.9553 4.34261 87.9712 5.81966 87.0216 5.37611C85.9253 5.10912 84.8851 4.99285 83.737 5.40625C81.9458 6.06511 79.9517 5.18664 78.1303 5.85411C77.2498 6.87038 76.5117 8.15795 74.7723 7.04694C74.6169 6.94359 74.168 6.99526 74.0558 7.12015C73.0933 8.27422 71.4186 7.69288 70.3093 8.56705C69.8 8.97615 69.0317 9.01059 68.2937 8.82542C65.7039 8.18379 63.179 9.27758 60.5504 8.96753C58.6988 8.75653 56.7349 9.85893 54.8315 8.79959C54.6588 8.70485 54.266 8.76514 54.1236 8.89432C53.0186 9.94075 51.5166 9.51012 50.2347 9.85893C50.1225 10.0613 50.0319 10.2723 49.9283 10.4747L49.9283 10.4963C49.7125 10.9226 49.5182 11.3489 49.3154 11.7795C48.832 12.5331 48.137 13.136 48.0248 14.1394C47.9126 14.9834 45.5301 16.792 45.1287 16.5035C43.9288 15.6465 43.2166 16.2279 42.4569 17.0418C41.7793 17.7781 40.8384 17.9116 39.8586 18.0494C37.1394 18.4714 34.9079 19.914 32.698 21.3782C32.3484 22.0887 31.2866 21.8346 30.937 22.5323L30.937 22.5366C30.855 22.8768 30.773 23.2299 30.7126 23.5744C30.7341 23.6045 30.8162 23.6131 30.855 23.6476C30.855 23.6476 30.855 23.6476 30.8334 23.6562L30.7126 23.5744C29.7285 24.6079 28.3991 25.0342 27.0913 25.5251C27.0697 25.7663 27.1949 26.0978 27.0481 26.2442C25.0411 28.5653 23.0556 30.951 19.8876 31.9888C19.3351 32.1826 18.9855 32.4367 18.8258 32.9405C18.7222 33.2548 18.6013 33.7458 18.2733 33.6984C16.2058 33.3453 15.4893 35.0893 14.2031 35.929C13.3874 36.2262 12.5457 36.5104 11.7256 36.8032C11.7688 36.9582 11.8292 37.1046 11.8681 37.2511C11.7256 37.3243 11.5616 37.3802 11.4192 37.4491C11.4796 37.6042 11.54 37.7549 11.6048 37.9099C11.7904 37.8712 11.9716 37.8195 12.1357 37.7807C12.1357 37.8066 12.1572 37.841 12.1572 37.8539C11.9716 37.8066 11.7688 37.7721 11.6048 37.9099L11.6048 37.9228C11.4408 37.9702 11.2595 38.0305 11.0955 38.0865L11.1947 38.3233L11.2767 38.5429L11.2767 38.5559C11.2983 38.586 11.2983 38.6118 11.2983 38.6463C11.1127 38.5989 10.9098 38.5602 10.7458 38.7023C9.66247 40.1449 9.58047 41.8458 9.29561 43.4994C9.3992 43.8181 9.49847 44.1152 9.60206 44.4382C9.64523 44.4382 9.68406 44.4468 9.7229 44.4511C10.2581 47.5947 7.24974 49.7737 7.20659 52.7665C7.20659 52.8311 7.12457 52.9172 7.06415 52.9603C5.7736 53.7096 5.40672 54.9067 5.12185 56.1426C4.69023 56.1297 4.26292 56.1771 3.87446 56.3665C3.83561 56.3924 3.79248 56.4182 3.75363 56.4527C3.63276 56.2417 3.50758 56.0177 3.38673 55.8067C2.52781 55.5527 2.0962 55.9273 1.97535 56.711C1.83291 56.7627 1.68617 56.8273 1.56531 56.9048L1.64732 57.1158L1.72932 57.3268C1.36245 57.8694 1.4833 58.5024 1.37971 59.0924C1.05169 59.4714 0.870404 59.9149 0.723645 60.3714L0.745221 60.38C0.559629 60.746 0.827253 61.1293 0.624387 61.4824L0.624387 61.4953C0.706388 62.2489 0.706372 63.0111 1.03441 63.7173C0.973981 63.7819 0.973981 63.8508 0.913556 63.924C0.913556 64.1523 1.01715 64.3245 1.18116 64.4752C1.03872 64.4968 0.896298 64.4882 0.749539 64.5872C0.607114 65.6681 1.07759 66.7188 0.89198 67.7954C1.54805 69.238 1.17685 70.5471 0.257489 71.7743C0.645947 72.9284 1.30201 74.0351 1.01283 75.3055C0.870389 76.0419 1.52646 76.4854 1.76815 77.0624C2.4458 78.518 1.54371 80.1802 2.4458 81.6055C2.1782 81.9587 2.19978 82.3419 2.28178 82.7252L2.38105 82.7122C2.38105 82.7122 2.40266 82.751 2.40266 82.7639C2.35949 82.7553 2.32063 82.7424 2.28178 82.7252C1.9106 84.9257 2.44581 86.8979 4.10324 88.4826C4.96215 89.3051 5.43263 90.1664 5.20817 91.3205L5.20817 91.3162C5.90309 91.6951 5.86422 92.4573 6.18794 93.0128C6.70156 94.3262 6.94758 95.7042 7.37489 97.0133C8.09138 99.2914 8.11296 102 10.6897 103.468C11.1818 103.955 11.7343 104.403 12.304 104.803C12.55 105.281 12.7356 105.798 13.3269 106.035C14.3283 107.628 15.5153 109.14 15.7008 111.091C15.7828 111.887 16.0677 112.667 16.2706 113.459C16.4346 113.838 16.7022 114.213 16.741 114.613C17.0691 117.192 16.9655 119.854 18.6445 122.153C18.9078 122.519 18.8085 123.118 18.8689 123.605C19.1581 125.745 20.8759 127.196 22.1017 128.746C22.8571 129.702 24.0872 130.464 24.7821 131.584C25.149 132.157 25.6626 132.613 26.3791 132.829C26.7891 132.975 26.8711 133.431 27.2596 133.582L27.2596 133.586C27.6696 133.724 27.7301 134.198 28.1185 134.353C28.2394 134.659 28.3861 134.956 28.5286 135.27C28.589 135.425 28.6322 135.585 28.6926 135.74C29.0638 136.144 29.4306 136.532 29.7975 136.932C30.4104 137.152 30.9025 137.596 31.3945 138.009C31.701 138.336 31.9642 138.728 32.3786 138.969C32.521 139.051 32.6851 139.047 32.8491 139.055C33.4015 140.459 33.9756 141.876 34.5281 143.284C34.4461 144.753 34.3425 146.208 34.6921 147.681C34.9597 148.736 34.8777 149.92 34.118 150.755C32.6851 152.314 33.5872 153.189 34.8777 154.192L34.8647 154.209ZM34.049 139.167C34.049 139.167 34.0878 139.206 34.0878 139.219C34.0662 139.245 34.049 139.249 34.0274 139.271C34.0274 139.271 34.0058 139.245 34.0058 139.228L34.049 139.163L34.049 139.167ZM69.3986 163.782L69.39 163.782C69.3597 163.679 69.3296 163.562 69.308 163.459L69.3166 163.459C69.2864 163.584 69.3468 163.679 69.3986 163.782ZM79.8438 8.51968C79.8222 8.54552 79.8438 8.57566 79.8352 8.6015C79.8438 8.57566 79.8136 8.52829 79.8438 8.51968ZM58.4398 16.482C58.4398 16.5681 58.3966 16.6198 58.3362 16.6973C58.3664 16.6241 58.3966 16.5552 58.4398 16.482ZM185.124 71.1198L185.168 71.1844C185.168 71.1844 185.124 71.1456 185.124 71.137L185.124 71.1241L185.124 71.1198ZM154.173 38.0133C154.164 38.1123 154.173 38.1941 154.164 38.2932C154.113 38.2501 154.044 38.2027 153.992 38.164C154.052 38.108 154.095 38.052 154.177 38.0133L154.173 38.0133ZM131.142 22.8509C131.142 22.8509 131.142 22.8509 131.15 22.8509C131.15 22.8509 131.148 22.8509 131.142 22.8509ZM152.278 46.5784C152.157 46.6904 152.209 46.8196 152.136 46.5741C152.127 46.5311 152.175 46.4708 152.209 46.432C152.218 46.4837 152.239 46.5354 152.278 46.5827L152.278 46.5784ZM164.661 108.98L164.653 108.972C164.653 108.972 164.661 108.985 164.661 108.98ZM96.0468 20.7581C96.0684 20.7279 96.09 20.7107 96.1202 20.6806C96.254 20.7107 96.254 20.8184 96.323 20.8743C96.241 20.8356 96.1288 20.7882 96.0468 20.7581ZM139.623 174.827L139.614 174.819C139.614 174.819 139.614 174.802 139.614 174.78C139.614 174.78 139.622 174.79 139.636 174.81C139.636 174.81 139.627 174.81 139.627 174.827L139.623 174.827ZM131.53 174.474C131.53 174.474 131.539 174.47 131.53 174.461C131.552 174.47 131.552 174.461 131.552 174.461C131.552 174.466 131.543 174.466 131.53 174.47L131.53 174.474ZM102.892 167.025C102.892 167.025 102.884 167.025 102.871 167.007L102.879 167.007C102.879 167.007 102.901 167.025 102.888 167.025L102.892 167.025ZM88.9855 25.5079C88.8129 25.482 88.7481 25.5854 88.7611 25.7835L88.7611 25.7706C88.7827 25.6241 88.7697 25.4777 88.9855 25.5122L88.9855 25.5079ZM34.5712 103.817L34.5281 103.813C34.5281 103.813 34.5712 103.804 34.5712 103.813L34.5712 103.817ZM102.059 33.7458C102.059 33.7458 102.102 33.7716 102.102 33.7845L102.059 33.7845L102.059 33.7458ZM75.4456 117.942C75.3938 117.843 75.3118 117.761 75.1996 117.688C75.3334 117.752 75.4327 117.83 75.4456 117.942ZM57.8787 113.592L57.8787 113.58C57.8787 113.605 57.9003 113.618 57.9003 113.644C57.8787 113.631 57.9003 113.61 57.8787 113.597L57.8787 113.592ZM146.473 140.972C146.473 140.972 146.464 140.972 146.464 140.976L146.456 140.963C146.456 140.963 146.464 140.963 146.477 140.972L146.473 140.972ZM58.1851 93.3487C58.1851 93.3487 58.142 93.3358 58.1334 93.3229C58.1549 93.3229 58.1636 93.3272 58.1938 93.3401C58.1938 93.3401 58.1909 93.3415 58.1851 93.3444L58.1851 93.3487ZM35.4518 91.8028C35.4518 91.8028 35.4302 91.8028 35.4302 91.8071C35.4302 91.8071 35.4302 91.8028 35.4518 91.8028ZM139.14 159.532L139.14 159.545C139.14 159.545 139.131 159.523 139.14 159.532ZM62.9977 99.8813C63.0193 99.8296 62.9977 99.7909 63.0581 99.7048C62.9373 99.9588 63.015 100.032 63.1401 100.084C63.097 100.006 63.0365 99.9545 62.9977 99.8813ZM56.0616 54.1574C56.0616 54.1574 56.0616 54.1445 56.0832 54.1445L56.0832 54.1531L56.0616 54.1531L56.0616 54.1574ZM58.7635 65.3925C58.8067 65.3666 58.8239 65.3709 58.8455 65.3494C58.8671 65.3666 58.8757 65.3882 58.8887 65.3968C58.8455 65.3968 58.8067 65.3968 58.7635 65.3968L58.7635 65.3925ZM84.1082 100.829C84.0564 100.786 84.0564 100.734 84.0133 100.678C84.0737 100.704 84.1557 100.721 84.2161 100.725C84.1643 100.768 84.1427 100.799 84.1039 100.824L84.1082 100.829ZM79.3086 76.7481C79.287 76.7179 79.2655 76.6964 79.2568 76.6706L79.2655 76.6447C79.2741 76.6878 79.3259 76.6835 79.3604 76.7222L79.3518 76.7222C79.3518 76.7222 79.3302 76.7395 79.3086 76.7481ZM92.9392 64.0661C92.9176 64.092 92.8787 64.092 92.8572 64.1135C92.8572 64.0834 92.8485 64.0791 92.8356 64.0575C92.8787 64.0748 92.9089 64.0618 92.9392 64.0661ZM89.5207 88.1123C89.5207 88.1123 89.5121 88.1209 89.5121 88.1425C89.4905 88.1295 89.4819 88.1338 89.4603 88.1338C89.4819 88.1295 89.5034 88.1209 89.5207 88.1166L89.5207 88.1123ZM76.1966 88.5128C76.1966 88.5128 76.175 88.4697 76.1535 88.4611C76.1535 88.4482 76.1535 88.4396 76.1621 88.4353C76.1707 88.4654 76.1923 88.4783 76.1923 88.5128L76.1966 88.5128ZM82.8867 96.2684C82.8263 96.32 82.7313 96.3373 82.6839 96.3846C82.6839 96.3932 82.6752 96.3933 82.6752 96.3933C82.6666 96.3846 82.6537 96.3846 82.645 96.3803C82.6234 96.3287 82.5846 96.3071 82.563 96.2554C82.6666 96.2985 82.7788 96.2554 82.891 96.2684L82.8867 96.2684ZM79.7445 76.9892C79.7445 76.9892 79.723 76.9634 79.7143 76.9634C79.8179 77.0065 79.9215 77.0538 80.0424 77.0797C80.0208 77.0883 80.0424 77.0926 80.0208 77.1012C80.0122 77.127 80.0424 77.1486 80.0424 77.1787C79.9301 77.127 79.8568 77.0366 79.7445 76.9892ZM111.905 99.9459C111.943 99.9502 111.987 99.9115 112.025 99.9115C112.004 100.006 112.017 100.088 111.982 100.191C111.961 100.092 111.922 100.032 111.9 99.9459L111.905 99.9459ZM104.632 79.0649L104.623 79.0649L104.623 79.0562L104.632 79.0649ZM66.2651 60.1776C66.2651 60.1776 66.3168 60.1647 66.2953 60.1948C66.2953 60.1819 66.2737 60.1948 66.2521 60.1862C66.2608 60.1862 66.2607 60.1776 66.2607 60.1776L66.2651 60.1776ZM65.1687 61.0044C65.1687 61.0345 65.1472 61.0604 65.1472 61.0948C65.1256 61.0862 65.104 61.0948 65.0867 61.0776L65.0954 61.0776L65.0954 61.0733L65.0867 61.0733L65.0867 61.0776L65.0867 61.069L65.0954 61.069C65.0954 61.069 65.1472 61.0302 65.1687 61.0044ZM88.5798 120.134C88.5582 120.185 88.541 120.228 88.5194 120.284C88.446 120.237 88.4158 120.211 88.3338 120.164C88.4373 120.168 88.4978 120.134 88.5798 120.134ZM106.773 131.209C106.678 131.132 106.609 131.029 106.535 130.925C106.721 130.964 106.915 131.007 107.079 131.037C106.954 131.08 106.893 131.166 106.773 131.209ZM85.1398 80.3266C85.1398 80.3266 85.1614 80.2878 85.1829 80.2706C85.1614 80.3008 85.1743 80.3094 85.1398 80.3481L85.1398 80.3309L85.1398 80.3266ZM85.7527 76.1366C85.7958 76.1237 85.8347 76.1194 85.8563 76.1021C85.8261 76.1366 85.8045 76.1883 85.7527 76.227L85.7527 76.1366ZM94.316 129.422C94.3376 129.457 94.3376 129.47 94.3592 129.5C94.3376 129.5 94.329 129.526 94.3074 129.534C94.3074 129.495 94.329 129.465 94.316 129.422ZM142.701 134.306C142.701 134.306 142.709 134.336 142.709 134.353C142.679 134.349 142.688 134.327 142.657 134.323C142.679 134.314 142.688 134.31 142.701 134.301L142.701 134.306ZM141.777 129.293L141.777 129.289C141.868 129.297 141.941 129.241 142.01 129.216L142.001 129.216C141.941 129.241 141.859 129.272 141.777 129.293ZM63.1358 100.097L63.1358 100.101C63.0926 100.092 63.0754 100.071 63.0538 100.054C63.0754 100.066 63.1056 100.084 63.1358 100.097ZM68.4361 109.312L68.4361 109.295C68.4361 109.295 68.4577 109.308 68.4361 109.312ZM151.514 127.924C151.484 127.924 151.493 127.941 151.493 127.962C151.471 127.954 151.462 127.962 151.449 127.962L151.449 127.915C151.449 127.915 151.493 127.919 151.51 127.928L151.514 127.924ZM58.1118 93.3702C58.1118 93.3702 58.1549 93.353 58.1851 93.353C58.1851 93.3702 58.2067 93.3961 58.2067 93.409C58.1851 93.4047 58.1549 93.3832 58.1161 93.3702L58.1118 93.3702ZM85.8477 138.431C85.8477 138.431 85.8692 138.418 85.8908 138.418C85.8692 138.422 85.8692 138.444 85.8692 138.457C85.8476 138.453 85.8692 138.448 85.8477 138.431ZM118.331 50.734C118.495 50.7899 118.638 50.8804 118.793 50.988L118.793 50.9923C118.621 50.889 118.478 50.8158 118.331 50.734ZM58.2931 112.253C58.3146 112.206 58.3146 112.184 58.3233 112.128C58.3448 112.146 58.375 112.163 58.3837 112.176C58.3535 112.21 58.3233 112.219 58.2931 112.253ZM74.9708 117.606C74.8975 117.597 74.8457 117.61 74.7982 117.61C74.85 117.597 74.8802 117.58 74.9924 117.571C75.0226 117.576 75.0226 117.597 75.0442 117.606C75.0226 117.597 74.9924 117.606 74.9752 117.606L74.9708 117.606ZM80.9142 140.563C80.9747 140.588 81.0351 140.61 81.0998 140.64C81.0998 140.64 81.0912 140.649 81.0782 140.657L81.0782 140.627C80.9962 140.593 80.9142 140.606 80.8322 140.584C80.8538 140.58 80.884 140.571 80.9142 140.558L80.9142 140.563ZM58.129 129.164C58.1808 129.117 58.2283 129.061 58.2801 129.005C58.2801 129.005 58.283 129.006 58.2887 129.009C58.3103 129.043 58.3405 129.043 58.3578 129.082C58.2585 129.052 58.2067 129.151 58.1247 129.164L58.129 129.164ZM151.613 156.72C151.613 156.72 151.635 156.733 151.644 156.728C151.644 156.728 151.634 156.727 151.613 156.724L151.613 156.72ZM145.023 120.582C144.798 120.323 144.738 120.823 144.902 120.521C145.005 120.569 145.036 120.444 145.126 120.452C145.118 120.513 145.126 120.538 145.105 120.59C145.083 120.582 145.031 120.599 145.023 120.577L145.023 120.582ZM44.8352 40.9587C44.8136 41.1224 44.8136 41.2903 44.792 41.454C44.8524 41.286 44.887 41.1181 44.8136 40.9501C44.8136 40.9674 44.8352 40.9587 44.8352 40.9587ZM45.5214 114.281L45.5128 114.281C45.5128 114.281 45.4912 114.264 45.4696 114.251C45.4912 114.26 45.5128 114.256 45.5214 114.281ZM72.1524 137.841C72.1308 137.785 72.0531 137.785 72.0531 137.712C72.0617 137.794 72.1523 137.751 72.1739 137.802C72.1739 137.811 72.1739 137.819 72.1524 137.841ZM114.481 173.915C114.511 173.988 114.49 174.052 114.511 174.13C114.451 174.147 114.442 174.13 114.391 174.156C114.412 174.065 114.451 173.992 114.481 173.915ZM127.689 174.84L127.667 174.836C127.667 174.823 127.689 174.836 127.689 174.81C127.689 174.832 127.697 174.823 127.689 174.84ZM135.73 106.901L135.708 106.905L135.648 106.905L135.639 106.875C135.669 106.875 135.7 106.883 135.73 106.901ZM88.7481 26.1495C88.7481 26.3088 88.6661 26.4423 88.5971 26.5672L88.5884 26.5586C88.6618 26.438 88.7524 26.3088 88.7524 26.1495L88.7481 26.1495ZM65.6435 22.8983C65.5442 22.8552 65.4493 22.7906 65.3371 22.7691C65.4321 22.7691 65.4795 22.6959 65.5615 22.6744C65.5529 22.7605 65.5831 22.8337 65.6435 22.9026L65.6435 22.8983ZM27.2553 65.5776C27.4409 65.5087 27.6049 65.4054 27.7862 65.315C27.9114 65.6465 27.6437 65.6508 27.2553 65.5776ZM38.3652 119.001C38.3652 119.001 38.3868 118.993 38.4083 118.993C38.4083 118.993 38.4083 119.001 38.4083 119.014C38.4083 119.014 38.394 119.011 38.3652 119.005L38.3652 119.001ZM73.2141 114.914C73.2962 114.846 73.3997 114.803 73.4817 114.747C73.3997 114.815 73.3393 114.88 73.2141 114.914ZM141.868 29.1338C141.868 29.1338 141.868 29.1251 141.876 29.1079C141.885 29.1295 141.885 29.1424 141.885 29.1596C141.885 29.1596 141.878 29.1495 141.863 29.1295L141.868 29.1338ZM95.1016 22.739C95.1016 22.739 95.1102 22.7605 95.1232 22.7691C95.1145 22.7605 95.1016 22.7562 95.1016 22.7562C95.1232 22.8122 95.1404 22.8681 95.1706 22.9198C95.1188 22.8595 95.1102 22.7949 95.0282 22.7648C95.0584 22.7648 95.0713 22.7648 95.0886 22.7648C95.0886 22.7648 95.1102 22.7519 95.0973 22.7433L95.1016 22.739ZM24.2469 106.457C24.2469 106.457 24.2685 106.423 24.2857 106.418L24.2469 106.427C24.2469 106.427 24.2685 106.423 24.2857 106.405L24.2857 106.414C24.2857 106.414 24.3073 106.431 24.3289 106.444C24.3001 106.447 24.2728 106.45 24.2469 106.453L24.2469 106.457ZM149.969 98.0167C149.999 98.0081 150.008 97.9823 150.021 97.9693L150.133 97.9952C150.133 97.9952 150.051 98.0038 149.969 98.021L149.969 98.0167ZM160.034 90.9674C160.056 90.9372 159.991 90.9028 160.026 90.8769C160.056 90.8941 160.078 90.9329 160.086 90.9674C160.078 90.976 160.056 90.9631 160.034 90.9674ZM111.335 27.4715C111.335 27.4715 111.365 27.45 111.365 27.4414C111.374 27.4543 111.365 27.4629 111.374 27.4758C111.374 27.4758 111.361 27.4758 111.335 27.4758L111.335 27.4715ZM114.024 177.472C114.024 177.472 114.024 177.51 114.032 177.519C114.011 177.51 113.989 177.519 113.989 177.519C113.989 177.502 114.011 177.493 114.019 177.472L114.024 177.472ZM165.758 156.539C165.758 156.539 165.749 156.539 165.749 156.565C165.749 156.543 165.74 156.53 165.727 156.522C165.727 156.522 165.738 156.529 165.758 156.543L165.758 156.539ZM141.009 59.5273L141.009 59.5144C141.009 59.5144 140.987 59.5101 140.965 59.4972C141.009 59.5058 141.017 59.5101 141.039 59.5273C141.03 59.5273 141.017 59.5273 141.009 59.5273ZM171.097 154.648C171.14 154.635 171.149 154.592 171.2 154.575C171.209 154.644 171.2 154.687 171.2 154.739C171.17 154.704 171.149 154.674 171.097 154.648ZM172.651 145.696C172.629 145.653 172.62 145.588 172.599 145.549C172.629 145.588 172.642 145.631 172.659 145.674C172.651 145.674 172.659 145.687 172.651 145.691L172.651 145.696ZM143.603 22.1102C143.603 22.1102 143.564 22.093 143.542 22.0844C143.663 21.9337 143.81 21.7959 143.831 21.5892C143.84 21.5978 143.853 21.6021 143.853 21.6021C143.771 21.7744 143.689 21.9337 143.607 22.1059L143.603 22.1102ZM82.4076 12.7097C82.2566 12.6451 82.071 12.5848 81.907 12.5116C81.907 12.5116 81.907 12.4987 81.8983 12.4771C82.0537 12.6063 82.2177 12.7054 82.4206 12.7054L82.412 12.7054L82.4076 12.7097ZM57.0629 22.3385C57.0629 22.3385 57.0716 22.3385 57.0845 22.3471C57.0414 22.3471 57.0025 22.3643 56.9637 22.3772L56.9637 22.3686C57.0068 22.3686 57.0457 22.3557 57.0629 22.3385ZM174.705 125.12C174.705 125.12 174.748 125.155 174.779 125.146C174.77 125.172 174.748 125.168 174.727 125.181C174.718 125.155 174.705 125.142 174.705 125.125L174.705 125.12ZM180.148 82.1955L180.148 82.1654L180.169 82.1654C180.169 82.1654 180.169 82.1912 180.191 82.1998C180.169 82.1955 180.161 82.1955 180.148 82.1955ZM189.972 51.5306C189.972 51.5306 189.972 51.522 189.993 51.5177L189.993 51.5651C189.993 51.5651 189.972 51.5392 189.972 51.5306ZM60.7576 160.63C60.7576 160.63 60.749 160.643 60.7274 160.643C60.749 160.608 60.7058 160.569 60.7058 160.522L60.7576 160.63L60.7792 160.63C60.7792 160.63 60.7705 160.634 60.7576 160.63ZM186.156 119.333C186.156 119.333 186.165 119.346 186.186 119.341C186.165 119.346 186.165 119.367 186.165 119.38C186.165 119.367 186.165 119.35 186.156 119.333ZM179.28 109.657C179.371 109.661 179.444 109.734 179.548 109.708C179.475 109.751 179.414 109.799 179.354 109.837C179.323 109.786 179.375 109.687 179.28 109.657ZM185.513 72.4806C185.616 72.3858 185.686 72.2739 185.78 72.1791C185.802 72.2308 185.824 72.2825 185.841 72.3342C185.72 72.3772 185.638 72.4375 185.513 72.4849L185.513 72.4806ZM198.936 76.6146C198.979 76.6017 199.018 76.5801 199.061 76.5672C199.001 76.6404 199.023 76.7007 198.936 76.7696C198.979 76.6964 198.936 76.6663 198.936 76.6146ZM194.426 127.571C194.469 127.553 194.516 127.562 194.577 127.562L194.568 127.562C194.568 127.562 194.56 127.601 194.56 127.614C194.499 127.622 194.439 127.648 194.365 127.652C194.396 127.627 194.374 127.579 194.426 127.571ZM185.638 132.445C185.638 132.445 185.595 132.458 185.586 132.462C185.608 132.488 185.616 132.497 185.66 132.523C185.621 132.518 185.586 132.497 185.556 132.493C185.556 132.48 185.578 132.467 185.578 132.454L185.578 132.458L185.586 132.458C185.586 132.458 185.586 132.458 185.578 132.458C185.578 132.445 185.586 132.45 185.599 132.428C185.599 132.437 185.621 132.432 185.642 132.441L185.638 132.445ZM186.372 73.583L186.393 73.5744C186.393 73.5744 186.393 73.5873 186.372 73.5959L186.372 73.5873L186.372 73.583ZM160.414 18.8289C160.414 18.8289 160.406 18.7944 160.406 18.7815C160.427 18.7944 160.427 18.816 160.449 18.8203C160.449 18.8203 160.439 18.8231 160.419 18.8289L160.414 18.8289ZM144.146 14.992L144.138 14.992C144.28 14.8499 144.384 14.6906 144.384 14.4925C144.302 14.6604 144.22 14.824 144.146 14.992ZM142.644 7.00388L142.623 7.00388C142.644 6.83594 142.666 6.65507 142.48 6.5388C142.489 6.50866 142.511 6.50866 142.524 6.49574C142.545 6.50866 142.567 6.5388 142.606 6.56033C142.554 6.55172 142.524 6.5345 142.485 6.5345C142.537 6.69814 142.588 6.84024 142.649 6.99957L142.644 7.00388ZM95.3778 5.06175C95.408 5.0273 95.4166 5.01869 95.4382 4.98855C95.4598 5.01008 95.4814 5.01869 95.4987 5.03161C95.4555 5.04453 95.4253 5.04453 95.3778 5.06175ZM53.3553 16.215C53.3553 16.215 53.3467 16.2193 53.3467 16.2236L53.3467 16.215C53.3467 16.215 53.3467 16.2107 53.3553 16.215ZM61.3057 162.047C61.3057 162.047 61.3057 162.034 61.3273 162.029L61.336 162.042C61.336 162.042 61.3273 162.042 61.3057 162.047ZM193.269 135.421C193.33 135.404 193.373 135.343 193.412 135.326C193.502 135.279 193.584 135.231 193.696 135.223C193.74 135.227 193.748 135.223 193.77 135.214C193.822 135.386 193.942 135.507 194.085 135.597C193.809 135.554 193.545 135.486 193.269 135.421ZM5.95488 56.4268L5.95488 56.4785C5.91171 56.4613 5.89445 56.4656 5.87286 56.4484C5.91603 56.4441 5.93329 56.4354 5.95488 56.4225L5.95488 56.4268ZM33.3972 138.827L33.4404 138.788C33.4404 138.788 33.462 138.831 33.462 138.853C33.4188 138.849 33.4188 138.84 33.4016 138.827C33.3627 138.836 33.3411 138.853 33.298 138.866C33.3195 138.84 33.3411 138.814 33.3584 138.788C33.38 138.801 33.38 138.814 33.3972 138.827ZM197.797 116.409C197.818 116.435 197.818 116.448 197.84 116.473C197.78 116.473 197.736 116.409 197.654 116.508C197.633 116.529 197.499 116.435 197.512 116.426C197.633 116.301 197.719 116.357 197.801 116.409L197.797 116.409ZM194.296 116.628C195.147 117.886 194.728 119.582 195.932 120.715C196.014 120.754 196.088 120.724 196.157 120.741C195.708 121.499 196.036 122.218 196.277 122.95C196.606 123.772 197.158 124.479 197.568 125.241C197.382 125.215 197.188 125.198 196.985 125.237C196.666 125.34 196.424 125.486 196.239 125.689C194.87 125.473 193.58 125.654 192.432 126.494C191.84 126.925 191.409 127.002 190.982 126.352C191.025 126.193 191.012 126.02 190.96 125.865C191.288 125.103 190.982 124.427 190.653 123.755L190.632 123.755C190.999 123.036 190.757 122.511 190.058 122.145L190.058 122.007C190.079 121.619 190.088 121.223 190.101 120.814C190.101 120.573 190.183 120.353 190.265 120.125C190.347 119.092 190.144 118.088 189.674 117.141C189.488 113.674 189.13 110.199 189.553 106.711C190.209 101.195 190.636 95.6526 190.8 90.0932C190.861 89.8434 190.688 89.697 190.554 89.5205C190.636 89.3611 190.718 89.2018 190.779 89.0252L190.8 88.9865C191.158 88.431 190.533 87.953 190.688 87.4147C190.576 87.2683 190.554 87.1219 190.606 86.9582C190.895 86.4243 190.269 85.9549 190.494 85.4252C190.455 85.2486 190.412 85.0721 190.382 84.8869C190.015 83.397 189.717 81.8984 189.389 80.3998C189.246 79.7625 189.121 79.1036 188.94 78.4749C191.029 81.2438 192.194 84.4907 193.873 87.4836C193.942 87.7118 194.068 87.9228 194.219 88.1209C195.949 88.6075 197.78 88.0736 199.497 88.586C199.459 88.5989 199.424 88.6161 199.394 88.6334C199.273 88.7539 199.126 88.8874 199.027 89.0425C198.915 89.1932 198.802 89.3439 198.708 89.4989C198.453 89.9339 198.021 90.2439 197.736 90.6573C197.244 91.5358 196.752 92.4143 196.429 93.353C195.742 95.2478 194.076 96.8067 194.27 98.9942C194.27 98.9942 194.262 98.9985 194.27 99.0071C194.197 98.9641 194.18 98.9167 194.093 98.8823C193.817 98.9124 193.584 99.0158 193.377 99.1923C191.025 102.616 191.094 106.379 192.458 109.949C193.295 112.158 193.981 114.329 194.301 116.62L194.296 116.628ZM191.02 45.2952C190.416 45.3856 189.833 45.4976 189.432 46.0272C189.38 46.1478 189.311 46.277 189.259 46.4019C187.542 46.4535 185.923 47.1727 184.205 47.1382C181.628 47.1727 180.489 49.0416 179.121 50.622C178.905 51.5134 179.336 52.3876 179.293 53.2876C179.25 53.757 179.25 54.2823 178.465 53.8991C178.046 53.701 177.696 53.6924 177.411 53.8689C176.151 51.7976 174.412 50.0708 172.767 48.3095C169.392 44.7095 165.973 41.1655 162.577 37.5913L162.413 37.6989C162.741 36.4501 162.098 35.2788 162.003 34.0558C161.964 33.9395 161.921 33.8276 161.882 33.7156C161.515 32.4237 162.089 31.0457 161.472 29.7754C161.571 29.7625 161.593 29.8314 161.705 29.8012C162.719 28.7634 162.555 27.6955 161.89 26.6017C162.374 26.8902 162.922 27.0883 163.31 27.4802C169.021 31.0285 173.725 35.6621 178.741 39.9597C182.258 42.987 186.311 44.8129 191.02 45.2995L191.02 45.2952ZM153.15 11.8226C152.865 11.5857 152.628 11.2972 152.321 11.0776C152.753 11.181 153.09 11.392 153.15 11.8226ZM14.5829 36.8506C14.5829 36.8506 14.5614 36.8549 14.5614 36.8721L14.5614 36.8635C14.5614 36.8635 14.5829 36.8592 14.5829 36.8549L14.5829 36.8506Z" fill="#111111"/>
</svg>
